<?xml version="1.0" encoding="UTF-8"?>
<svg xmlns="http://www.w3.org/2000/svg" xmlns:xlink="http://www.w3.org/1999/xlink" width="192px" height="192px" viewBox="0 0 192 192" version="1.1">
<g id="surface1">
<path style=" stroke:none;fill-rule:nonzero;fill:rgb(48.235294%,85.098039%,32.54902%);fill-opacity:1;" d="M 0 96 L 0 192 L 192 192 L 192 0 L 0 0 Z M 123.207031 15.777344 C 127.222656 17.140625 127.6875 18.628906 127.6875 30.128906 L 127.6875 38.804688 L 149.203125 38.855469 C 170.199219 38.90625 170.730469 38.914062 171.261719 39.273438 C 172.386719 40.035156 172.3125 36.402344 172.3125 91.21875 C 172.3125 145.367188 172.367188 142.277344 171.382812 143.15625 C 170.960938 143.53125 170.695312 143.53125 96.460938 143.53125 L 21.964844 143.53125 L 21.4375 143.140625 C 20.40625 142.375 20.460938 145.164062 20.449219 91.3125 C 20.4375 37.714844 20.394531 40.074219 21.429688 39.335938 L 22.03125 38.90625 L 65.0625 38.804688 L 65.0625 30.511719 C 65.066406 18.992188 65.339844 17.949219 68.835938 16.078125 L 69.800781 15.5625 L 96.183594 15.5625 C 115.617188 15.5625 122.738281 15.621094 123.207031 15.777344 M 70.777344 20.160156 C 69.628906 20.730469 69.660156 20.476562 69.601562 29.859375 L 69.546875 38.4375 L 123.1875 38.4375 L 123.1875 21.195312 L 122.09375 19.96875 L 96.71875 19.925781 C 74.515625 19.886719 71.273438 19.917969 70.777344 20.160156 M 91.6875 58.875 L 91.6875 74.4375 L 101.0625 74.4375 L 101.0625 43.3125 L 91.6875 43.3125 Z M 155.8125 79.421875 C 149.46875 81.429688 136.773438 85.4375 127.59375 88.328125 C 118.414062 91.21875 110.632812 93.667969 110.296875 93.773438 L 109.6875 93.964844 L 109.6875 100.105469 C 109.6875 108.066406 109.316406 109.242188 106.445312 110.339844 L 105.5625 110.675781 L 105.5625 139.125 L 167.8125 139.125 L 167.8125 107.4375 C 167.8125 82.207031 167.765625 75.753906 167.578125 75.761719 C 167.449219 75.765625 162.15625 77.414062 155.8125 79.421875 M 24.9375 108 L 24.9375 139.125 L 87.1875 139.125 L 87.1875 110.640625 L 86.4375 110.414062 C 85.464844 110.125 84.320312 109.136719 83.671875 108.03125 L 83.15625 107.15625 L 83.101562 100.6875 L 83.042969 94.21875 L 65.476562 88.933594 C 29.386719 78.082031 25.34375 76.875 25.144531 76.875 C 24.996094 76.875 24.9375 85.5625 24.9375 108 M 87.6875 79.0625 C 87.378906 79.371094 87.550781 106.078125 87.859375 106.199219 C 88.023438 106.261719 89.496094 106.3125 91.132812 106.3125 L 94.105469 106.3125 L 94.164062 101.449219 C 94.214844 96.855469 94.242188 96.558594 94.613281 96.058594 C 95.421875 94.96875 97.117188 94.902344 98.078125 95.921875 C 98.53125 96.402344 98.53125 96.40625 98.585938 101.359375 L 98.640625 106.3125 L 101.617188 106.3125 C 103.253906 106.3125 104.726562 106.261719 104.890625 106.199219 C 105.15625 106.097656 105.1875 104.714844 105.1875 92.511719 L 105.1875 78.9375 L 96.5 78.9375 C 91.722656 78.9375 87.757812 78.992188 87.6875 79.0625 M 91.6875 124.96875 L 91.6875 139.125 L 101.0625 139.125 L 101.0625 110.8125 L 91.6875 110.8125 Z M 87.128906 148.382812 C 87.5 148.746094 87.546875 149.035156 87.652344 151.59375 C 87.824219 155.699219 88.730469 158.4375 89.917969 158.4375 C 90.066406 158.4375 90.1875 158.511719 90.1875 158.605469 C 90.1875 158.695312 90.316406 158.824219 90.480469 158.882812 C 90.675781 158.960938 90.726562 158.917969 90.636719 158.761719 C 90.5625 158.636719 90.71875 158.726562 90.980469 158.964844 C 91.492188 159.433594 91.792969 160.421875 91.523438 160.761719 C 91.433594 160.875 91.257812 161.289062 91.132812 161.683594 C 90.714844 162.972656 89.511719 163.972656 86.15625 165.816406 C 81.179688 168.554688 81.277344 168.53125 77.476562 167.949219 C 75.152344 167.59375 71.902344 167.507812 72.375 167.8125 C 72.589844 167.949219 72.507812 167.996094 72.046875 167.996094 C 71.710938 168 71.4375 167.914062 71.4375 167.8125 C 71.4375 167.710938 71.164062 167.625 70.828125 167.628906 C 69.851562 167.628906 68.8125 167.847656 68.921875 168.023438 C 68.976562 168.113281 68.847656 168.1875 68.636719 168.1875 C 68.421875 168.1875 68.25 168.109375 68.25 168.019531 C 68.25 167.925781 68.082031 167.890625 67.878906 167.945312 C 67.671875 168 67.542969 168.101562 67.585938 168.175781 C 67.699219 168.359375 65.875 168.8125 65.632812 168.660156 C 65.523438 168.59375 65.4375 168.640625 65.4375 168.757812 C 65.4375 168.878906 65.308594 168.925781 65.148438 168.867188 C 64.964844 168.796875 64.902344 168.832031 64.980469 168.960938 C 65.066406 169.097656 64.972656 169.121094 64.6875 169.03125 C 64.421875 168.949219 64.308594 168.96875 64.382812 169.085938 C 64.445312 169.1875 64.3125 169.269531 64.078125 169.265625 C 63.847656 169.261719 63.0625 169.363281 62.335938 169.492188 C 60.953125 169.742188 61.027344 169.753906 57.96875 168.867188 C 57.523438 168.738281 57.09375 168.523438 57.011719 168.394531 C 56.929688 168.261719 56.808594 168.164062 56.746094 168.171875 C 56.328125 168.226562 56.054688 168.164062 56.136719 168.035156 C 56.1875 167.949219 55.960938 167.914062 55.628906 167.953125 C 55.285156 167.996094 55.125 167.960938 55.246094 167.871094 C 55.441406 167.734375 53.640625 167.679688 53.15625 167.808594 C 51.476562 168.253906 48.09375 167.582031 45.539062 166.300781 C 43.644531 165.351562 42.777344 165.230469 41.53125 165.746094 C 40.753906 166.070312 40.402344 166.183594 40.265625 166.15625 C 40.1875 166.136719 40.125 166.25 40.125 166.40625 C 40.125 166.5625 40.035156 166.6875 39.929688 166.6875 C 39.820312 166.6875 39.617188 166.964844 39.476562 167.300781 C 38.546875 169.519531 36.515625 168.992188 36.449219 166.515625 C 36.429688 165.800781 36.363281 165.132812 36.296875 165.027344 C 36.234375 164.921875 36.269531 164.785156 36.375 164.71875 C 36.480469 164.652344 36.519531 164.519531 36.457031 164.421875 C 36.398438 164.324219 36.25 164.304688 36.128906 164.375 C 35.980469 164.464844 35.984375 164.410156 36.144531 164.214844 C 36.324219 163.992188 36.332031 163.789062 36.183594 163.394531 C 35.859375 162.542969 36.015625 160.726562 36.585938 158.71875 C 37.476562 155.582031 37.550781 154.96875 37.132812 154.277344 C 36.480469 153.207031 36.925781 152.039062 38.21875 151.4375 C 38.699219 151.214844 39.390625 150.820312 39.75 150.5625 C 41.949219 148.992188 42.050781 148.964844 44.574219 149.242188 C 45.789062 149.378906 47.652344 149.519531 48.71875 149.554688 C 49.785156 149.589844 50.964844 149.65625 51.34375 149.703125 C 51.722656 149.746094 52.125 149.792969 52.238281 149.800781 C 53.125 149.855469 54.011719 152.578125 53.164062 152.648438 C 53.007812 152.660156 52.789062 152.691406 52.6875 152.71875 C 52.585938 152.746094 52.375 152.777344 52.21875 152.789062 C 51.832031 152.820312 51.863281 153.558594 52.265625 153.863281 C 52.71875 154.207031 52.886719 154.183594 52.738281 153.796875 C 52.65625 153.585938 52.796875 153.65625 53.125 153.984375 C 53.410156 154.269531 53.742188 154.5 53.867188 154.496094 C 54.035156 154.496094 54.039062 154.457031 53.878906 154.355469 C 53.757812 154.28125 54.191406 154.207031 54.835938 154.195312 C 55.777344 154.175781 56.191406 154.058594 56.894531 153.632812 C 57.375 153.335938 57.976562 152.984375 58.230469 152.847656 C 58.480469 152.714844 58.6875 152.492188 58.6875 152.355469 C 58.6875 152.21875 58.835938 151.992188 59.015625 151.851562 C 59.300781 151.625 59.320312 151.632812 59.15625 151.882812 C 59.054688 152.042969 59.113281 152.019531 59.285156 151.828125 C 59.460938 151.640625 59.652344 151.488281 59.707031 151.492188 C 60.109375 151.523438 60.191406 151.472656 60.074219 151.265625 C 60 151.136719 60.007812 151.089844 60.085938 151.164062 C 60.167969 151.238281 60.476562 151.171875 60.769531 151.019531 C 62.789062 149.976562 65.210938 149.539062 66.140625 150.050781 C 66.371094 150.175781 67.089844 150.5625 67.734375 150.90625 C 68.378906 151.25 69.222656 151.78125 69.609375 152.085938 C 69.996094 152.394531 70.3125 152.546875 70.3125 152.433594 C 70.3125 152.152344 72.167969 153.59375 72.179688 153.878906 C 72.199219 154.390625 74.617188 155.328125 75.917969 155.328125 C 77.210938 155.328125 78.710938 154.734375 78.902344 154.144531 C 78.960938 153.964844 78.90625 153.933594 78.726562 154.046875 C 78.585938 154.132812 78.679688 153.945312 78.9375 153.625 C 79.195312 153.308594 79.464844 153.082031 79.535156 153.121094 C 79.605469 153.160156 80.039062 152.703125 80.5 152.105469 C 81.378906 150.960938 82.753906 149.625 83.050781 149.625 C 83.144531 149.625 83.546875 149.320312 83.941406 148.945312 C 85.226562 147.71875 86.261719 147.535156 87.128906 148.382812 M 105.851562 149.5 C 105.910156 149.738281 105.917969 150.402344 105.859375 150.980469 C 105.636719 153.355469 108.953125 154.664062 111.878906 153.351562 C 112.3125 153.160156 112.746094 153 112.84375 153 C 112.941406 153 113.078125 152.78125 113.144531 152.515625 C 113.605469 150.675781 115.761719 150.648438 116.519531 152.472656 C 116.878906 153.34375 117.46875 153.894531 118.160156 154.003906 C 118.402344 154.042969 118.574219 154.191406 118.550781 154.335938 C 118.464844 154.835938 121.933594 155.808594 122.8125 155.53125 C 123.492188 155.316406 127.484375 155.304688 127.589844 155.515625 C 127.65625 155.652344 127.726562 155.636719 127.796875 155.480469 C 127.875 155.316406 128.128906 155.277344 128.59375 155.351562 C 129.132812 155.441406 129.21875 155.417969 129 155.253906 C 128.777344 155.085938 128.851562 155.066406 129.328125 155.160156 C 129.664062 155.226562 129.9375 155.210938 129.9375 155.125 C 129.941406 154.707031 133.226562 154.863281 135.09375 155.367188 C 136.71875 155.804688 137.460938 155.886719 140.632812 155.984375 C 144.648438 156.105469 144.679688 156.113281 146.054688 157.433594 C 146.410156 157.773438 147.101562 158.328125 147.589844 158.660156 C 148.839844 159.511719 148.851562 159.703125 147.957031 163.167969 C 147.160156 166.242188 144.101562 171.285156 142.535156 172.109375 C 141.285156 172.765625 139.917969 172.691406 139.207031 171.925781 C 138.121094 170.757812 137.332031 170.0625 137.160156 170.125 C 136.300781 170.449219 136.128906 170.457031 136.242188 170.164062 C 136.34375 169.902344 136.292969 169.890625 135.871094 170.082031 C 135.605469 170.207031 135.421875 170.359375 135.460938 170.425781 C 135.503906 170.492188 135.363281 170.558594 135.148438 170.574219 C 134.9375 170.59375 134.585938 170.769531 134.367188 170.96875 C 132.714844 172.46875 130.175781 173.242188 128.71875 172.6875 C 128.09375 172.449219 127.957031 172.304688 126.988281 170.8125 C 126.550781 170.140625 126.125 169.507812 126.039062 169.40625 C 125.953125 169.304688 125.875 169.148438 125.859375 169.058594 C 125.75 168.40625 124.089844 167.988281 120.933594 167.816406 C 117.703125 167.640625 115.296875 167.746094 116.25 168.015625 C 116.734375 168.15625 116.507812 168.191406 114.65625 168.285156 C 113.714844 168.332031 113.597656 168.367188 113.71875 168.558594 C 113.78125 168.664062 113.714844 168.699219 113.574219 168.648438 C 113.429688 168.59375 113.066406 168.644531 112.765625 168.761719 C 111.390625 169.296875 110.09375 169.5 108.039062 169.507812 C 106.105469 169.515625 105.242188 169.589844 102.363281 170 C 99.699219 170.378906 97.722656 168.019531 97.3125 163.960938 C 96.945312 160.367188 97.941406 156.570312 100.082031 153.402344 C 100.523438 152.746094 101.003906 151.988281 101.148438 151.714844 C 101.582031 150.886719 103.777344 148.726562 104.265625 148.648438 C 104.898438 148.546875 105.722656 148.988281 105.851562 149.5 M 104.792969 149.421875 C 104.957031 149.523438 105.003906 149.71875 104.921875 149.933594 C 104.820312 150.203125 104.839844 150.230469 105.015625 150.058594 C 105.277344 149.796875 105.113281 149.25 104.773438 149.253906 C 104.59375 149.253906 104.597656 149.296875 104.792969 149.421875 M 64.480469 151.070312 C 64.238281 151.378906 64.246094 151.386719 64.5625 151.136719 C 64.859375 150.902344 64.929688 150.902344 65.089844 151.136719 C 65.253906 151.371094 65.269531 151.371094 65.207031 151.136719 C 65.09375 150.726562 64.773438 150.699219 64.480469 151.070312 M 49.644531 151.632812 C 49.875 151.675781 50.214844 151.675781 50.394531 151.628906 C 50.570312 151.582031 50.382812 151.546875 49.96875 151.546875 C 49.554688 151.550781 49.410156 151.585938 49.644531 151.632812 M 69.609375 154.066406 C 69.789062 154.113281 70.085938 154.113281 70.265625 154.066406 C 70.445312 154.019531 70.296875 153.980469 69.9375 153.980469 C 69.578125 153.980469 69.429688 154.019531 69.609375 154.066406 M 47.878906 157.226562 C 47.816406 157.386719 47.820312 157.570312 47.882812 157.632812 C 47.945312 157.699219 48 157.597656 48 157.414062 C 48 157.160156 48.109375 157.101562 48.464844 157.167969 C 48.71875 157.21875 48.882812 157.1875 48.828125 157.097656 C 48.660156 156.828125 47.996094 156.917969 47.878906 157.226562 M 140.519531 160.921875 L 139.96875 161.53125 L 140.578125 160.980469 C 140.914062 160.675781 141.1875 160.402344 141.1875 160.371094 C 141.1875 160.226562 141.03125 160.355469 140.519531 160.921875 M 141.082031 161.296875 L 140.53125 161.90625 L 141.140625 161.355469 C 141.476562 161.050781 141.75 160.777344 141.75 160.746094 C 141.75 160.601562 141.59375 160.730469 141.082031 161.296875 "/>
<path style=" stroke:none;fill-rule:nonzero;fill:rgb(1.568627%,1.568627%,1.568627%);fill-opacity:1;" d="M 69.75 15.777344 C 68.742188 16.050781 67.121094 17.265625 66.433594 18.261719 C 65.265625 19.957031 65.25 20.125 65.25 30.035156 L 65.25 39 L 43.734375 39 C 19.769531 39 21.308594 38.917969 20.808594 40.230469 C 20.691406 40.539062 20.625 58.9375 20.625 91.4375 L 20.625 142.164062 L 21.898438 143.4375 L 96.253906 143.4375 C 153.5 143.4375 170.71875 143.386719 171.097656 143.214844 C 172.199219 142.710938 172.125 146.445312 172.125 91.117188 L 172.125 40.273438 L 170.851562 39 L 127.511719 39 L 127.460938 29.578125 L 127.40625 20.15625 L 126.761719 18.96875 C 126.085938 17.71875 125.152344 16.828125 123.75 16.097656 L 122.90625 15.65625 L 96.65625 15.628906 C 80.503906 15.609375 70.152344 15.667969 69.75 15.777344 M 122.359375 20.183594 C 123.375 20.847656 123.375 20.847656 123.375 30.085938 L 123.375 38.625 L 69.5625 38.625 L 69.5625 21.148438 L 70.835938 19.875 L 96.363281 19.875 C 119.757812 19.875 121.925781 19.902344 122.359375 20.183594 M 101.0625 58.875 L 101.0625 74.4375 L 91.6875 74.4375 L 91.6875 43.3125 L 101.0625 43.3125 Z M 167.8125 107.4375 L 167.8125 139.3125 L 105.46875 139.21875 L 105.46875 110.582031 L 106.445312 110.21875 C 109.183594 109.195312 109.5 108.171875 109.5 100.257812 L 109.5 93.96875 L 111.234375 93.398438 C 112.1875 93.085938 119.675781 90.71875 127.875 88.140625 C 136.074219 85.558594 148.351562 81.679688 155.15625 79.519531 C 161.960938 77.359375 167.59375 75.585938 167.671875 75.578125 C 167.75 75.570312 167.8125 89.90625 167.8125 107.4375 M 47.53125 83.441406 C 67.6875 89.488281 76.453125 92.125 81.21875 93.578125 L 83.03125 94.132812 L 83.097656 100.457031 C 83.183594 108.503906 83.53125 109.398438 87.046875 110.511719 C 87.359375 110.609375 87.375 111.417969 87.328125 124.917969 L 87.28125 139.21875 L 24.9375 139.3125 L 24.9375 107.988281 C 24.9375 78.242188 24.953125 76.667969 25.265625 76.761719 C 25.445312 76.816406 35.464844 79.824219 47.53125 83.441406 M 105.148438 78.976562 C 105.476562 79.300781 105.476562 105.761719 105.148438 106.085938 C 104.992188 106.246094 103.976562 106.3125 101.785156 106.3125 L 98.648438 106.3125 L 98.589844 101.421875 L 98.53125 96.535156 L 97.808594 95.871094 C 96.859375 95 95.671875 95.046875 94.835938 95.984375 L 94.3125 96.566406 L 94.3125 106.3125 L 91.039062 106.3125 C 88.011719 106.3125 87.75 106.285156 87.570312 105.957031 C 87.308594 105.464844 87.308594 79.597656 87.574219 79.105469 C 87.808594 78.664062 104.714844 78.539062 105.148438 78.976562 M 101.15625 124.96875 L 101.15625 139.21875 L 91.6875 139.320312 L 91.6875 110.617188 L 101.15625 110.71875 L 101.15625 124.96875 "/>
<path style=" stroke:none;fill-rule:nonzero;fill:rgb(90.196078%,91.372549%,89.803922%);fill-opacity:1;" d="M 85.617188 149.253906 C 84.734375 150.304688 83.085938 153.449219 82.125 155.90625 C 81.601562 157.246094 81.050781 158.566406 80.898438 158.839844 C 80.75 159.113281 80.625 159.503906 80.625 159.707031 C 80.625 160.179688 77.40625 162.730469 75.820312 163.519531 C 72.828125 165.007812 71.386719 164.007812 72.640625 161.316406 C 73.796875 158.832031 76.234375 157.722656 75.386719 160.070312 C 75.117188 160.8125 75.25 161.078125 75.675781 160.65625 C 76.179688 160.152344 76.234375 158.921875 75.773438 158.460938 C 74.988281 157.675781 74.605469 157.886719 71.949219 160.5625 C 68.375 164.164062 66.292969 165.113281 65.933594 163.308594 C 65.777344 162.535156 65.84375 162.453125 66.957031 161.972656 C 69.007812 161.09375 70.253906 158.25 68.59375 158.25 C 67.589844 158.25 66.632812 159.308594 62.683594 164.8125 C 61.164062 166.925781 60.699219 167.359375 60.378906 166.972656 C 59.847656 166.332031 60.769531 162.078125 62.433594 157.476562 C 63.292969 155.09375 62.949219 155.289062 67.015625 154.917969 C 69.445312 154.695312 70.589844 154.519531 70.640625 154.359375 C 70.738281 154.0625 69.660156 154.054688 66.84375 154.328125 C 65.695312 154.441406 64.535156 154.503906 64.265625 154.46875 L 63.769531 154.40625 L 64.417969 152.945312 C 65.722656 149.996094 64.886719 150.152344 63.394531 153.136719 C 62.542969 154.84375 62.714844 154.742188 60.195312 155.054688 C 58.667969 155.246094 58.082031 155.460938 58.457031 155.691406 C 58.550781 155.75 59.402344 155.703125 60.347656 155.589844 C 62.503906 155.324219 62.4375 155.191406 61.5 157.859375 C 60.761719 159.953125 60.628906 160.183594 59.648438 161.117188 C 57.503906 163.15625 57.132812 163.152344 56.90625 161.089844 C 56.746094 159.621094 56.539062 159.1875 55.992188 159.1875 C 55.457031 159.1875 53.734375 160.957031 52.929688 162.332031 C 52.058594 163.816406 52.230469 162.804688 53.316406 160.019531 C 53.980469 158.324219 54.273438 157.339844 54.15625 157.21875 C 53.914062 156.96875 53.535156 157.496094 53.082031 158.707031 C 52.734375 159.632812 52.171875 160.363281 50.0625 162.621094 C 47.375 165.5 46.394531 164.523438 47.820312 160.382812 C 48.023438 159.789062 48.121094 159.234375 48.035156 159.148438 C 47.738281 158.847656 47.25 159.691406 46.875 161.152344 C 45.742188 165.585938 47.621094 166.292969 50.9375 162.683594 C 51.519531 162.050781 51.9375 161.695312 51.863281 161.894531 C 50.625 165.359375 51.113281 167.191406 52.527344 164.378906 C 53.519531 162.398438 55.664062 159.664062 55.976562 159.976562 C 56.039062 160.039062 56.160156 160.605469 56.25 161.246094 C 56.578125 163.585938 57.46875 163.894531 59.292969 162.296875 C 60.464844 161.269531 60.402344 161.183594 59.980469 163.21875 C 58.820312 168.824219 60.097656 169.410156 63.511719 164.84375 L 65.140625 162.664062 L 65.292969 163.410156 C 65.695312 165.414062 67.507812 165.246094 70.410156 162.933594 L 71.554688 162.023438 L 71.554688 162.976562 C 71.554688 165.910156 75.238281 165.351562 79.546875 161.769531 C 80.035156 161.359375 80.4375 161.121094 80.4375 161.234375 C 80.4375 161.34375 80.300781 162.21875 80.136719 163.171875 C 79.351562 167.710938 80.242188 167.976562 82.410156 163.855469 C 84.726562 159.453125 85.5 158.757812 85.5 161.074219 C 85.5 162.367188 85.851562 163.125 86.445312 163.125 C 87.15625 163.125 90.089844 161.097656 90.292969 160.46875 C 90.496094 159.824219 90.230469 159.867188 89.304688 160.632812 C 86.410156 163.027344 86.128906 162.96875 86.015625 159.9375 C 85.917969 157.398438 84.113281 158.96875 81.777344 163.625 C 80.71875 165.738281 80.535156 165.792969 80.691406 163.953125 C 80.941406 160.953125 81.78125 158.179688 83.09375 156.042969 C 85.609375 151.949219 87.398438 147.140625 85.617188 149.253906 M 103.976562 150.097656 C 100.640625 154.472656 98.582031 164.179688 100.265625 167.605469 C 101.460938 170.039062 102.828125 168.703125 105.777344 162.210938 C 107.660156 158.074219 107.808594 157.917969 107.359375 160.53125 C 105.832031 169.414062 110.8125 170.363281 113.695312 161.738281 C 114.933594 158.03125 115.644531 151.921875 114.816406 152.101562 C 114.625 152.140625 114.53125 152.605469 114.472656 153.84375 C 114.101562 161.367188 110.328125 169.242188 108.394531 166.527344 C 107.417969 165.160156 107.445312 162.964844 108.484375 158.328125 C 108.980469 156.121094 108.941406 155.625 108.300781 155.871094 C 107.960938 156.003906 107.394531 157.101562 105.257812 161.773438 C 102.476562 167.863281 101.632812 168.882812 100.757812 167.210938 C 99.289062 164.40625 101.519531 154.503906 104.507812 150.574219 C 104.777344 150.21875 105 149.816406 105 149.683594 C 105 149.226562 104.484375 149.433594 103.976562 150.097656 M 42.265625 151.109375 C 41.933594 151.933594 42.140625 151.839844 39.125 152.597656 C 38.316406 152.804688 37.605469 153.019531 37.546875 153.078125 C 37.257812 153.367188 37.773438 153.335938 39.429688 152.960938 C 41.679688 152.449219 41.617188 152.351562 40.71875 155 C 40.304688 156.222656 39.78125 157.976562 39.558594 158.90625 C 39.105469 160.792969 38.992188 160.964844 38.074219 161.199219 C 37.179688 161.425781 37.101562 161.8125 37.953125 161.8125 C 38.792969 161.8125 38.792969 161.808594 38.050781 165.011719 C 37.5 167.410156 37.453125 168.308594 37.90625 167.855469 C 38.019531 167.742188 38.433594 166.328125 38.820312 164.710938 C 39.664062 161.199219 39.34375 161.554688 42.09375 161.070312 C 43.332031 160.847656 44.460938 160.554688 44.601562 160.414062 C 44.949219 160.070312 44.703125 159.695312 44.277344 159.921875 C 43.207031 160.496094 39.9375 160.824219 39.9375 160.359375 C 39.945312 158.828125 42.226562 152.476562 42.808594 152.351562 C 43.710938 152.15625 48.222656 151.664062 50.234375 151.539062 C 51.679688 151.449219 52.402344 151.332031 52.453125 151.171875 C 52.558594 150.851562 51.203125 150.867188 47.90625 151.226562 C 46.460938 151.382812 44.746094 151.5625 44.09375 151.628906 L 42.90625 151.746094 L 42.96875 151.125 C 43.0625 150.214844 42.628906 150.203125 42.265625 151.109375 M 132.28125 157.382812 C 130.964844 158.003906 129.1875 159.375 129.1875 159.765625 C 129.1875 160.566406 124.398438 164.25 123.359375 164.25 C 122.234375 164.25 122.257812 162.617188 123.390625 162.070312 C 125.34375 161.132812 126.617188 159.015625 125.605469 158.382812 C 124.992188 157.996094 124.277344 158.46875 122.007812 160.757812 C 118.882812 163.910156 116.683594 165.011719 116.328125 163.601562 C 116.121094 162.769531 116.308594 162.3125 116.925781 162.152344 C 118.851562 161.65625 120.574219 158.464844 119.011719 158.285156 C 117.222656 158.078125 115.007812 161.722656 115.679688 163.761719 C 116.222656 165.398438 118.03125 165.101562 120.703125 162.933594 L 121.875 161.984375 L 121.875 162.9375 C 121.875 164.519531 122.972656 165.222656 124.445312 164.585938 C 125.988281 163.917969 129.9375 160.582031 129.679688 160.164062 C 129.429688 159.757812 132.871094 157.507812 133.320312 157.785156 C 133.683594 158.007812 132.304688 160.46875 130.847656 162.195312 C 129.917969 163.300781 129.933594 163.375 131.066406 163.21875 C 132.226562 163.058594 132.5625 163.289062 132.5625 164.230469 C 132.5625 164.941406 132.523438 165.007812 130.667969 167.457031 C 129.425781 169.097656 129.023438 169.835938 128.96875 170.566406 C 128.757812 173.300781 131.746094 170.0625 133.019531 166.171875 C 133.296875 165.328125 133.632812 164.917969 135.433594 163.21875 C 137.804688 160.988281 137.769531 161.007812 137.847656 161.933594 C 137.984375 163.558594 139.066406 163.25 141.347656 160.945312 C 142.316406 159.964844 143.148438 159.210938 143.199219 159.257812 C 143.414062 159.476562 142.46875 165.488281 142.117188 166.125 C 140.308594 169.410156 140.082031 170 140.3125 170.871094 C 140.742188 172.507812 141.980469 170.894531 142.6875 167.773438 C 143.144531 165.753906 143.492188 165.179688 146.410156 161.628906 C 147.488281 160.320312 147.789062 159.75 147.398438 159.75 C 147.1875 159.75 146.066406 160.972656 144.652344 162.75 C 143.289062 164.457031 143.273438 164.417969 143.789062 160.5 C 144.28125 156.757812 144.175781 156.679688 142.082031 159.226562 C 140.011719 161.742188 138.375 162.863281 138.375 161.765625 C 138.375 161.238281 138.949219 159.34375 139.246094 158.890625 C 139.429688 158.609375 139.488281 158.351562 139.386719 158.25 C 139.128906 157.992188 138.847656 158.253906 138.375 159.179688 C 138.140625 159.640625 137.519531 160.398438 136.992188 160.867188 C 136.464844 161.332031 135.519531 162.199219 134.890625 162.792969 C 133.621094 164 133.382812 164.082031 133.128906 163.414062 C 133.03125 163.164062 132.71875 162.808594 132.429688 162.628906 C 132.140625 162.449219 131.875 162.28125 131.839844 162.253906 C 131.800781 162.230469 132.148438 161.632812 132.613281 160.933594 C 134.796875 157.617188 134.671875 156.253906 132.28125 157.382812 M 48 157.488281 C 48 157.980469 48.25 158.101562 48.65625 157.804688 C 49.054688 157.515625 48.886719 157.125 48.363281 157.125 C 48.128906 157.125 48 157.253906 48 157.488281 M 68.625 159.410156 C 68.625 159.851562 67.066406 161.4375 66.628906 161.4375 C 66.261719 161.4375 66.3125 161.152344 66.835938 160.324219 C 67.597656 159.121094 68.625 158.59375 68.625 159.410156 M 118.96875 159.421875 C 118.726562 160.277344 116.625 161.90625 116.625 161.238281 C 116.625 160.933594 117.710938 159.417969 118.082031 159.199219 C 118.683594 158.847656 119.101562 158.953125 118.96875 159.421875 M 125.25 159.375 C 125.25 160.027344 123.230469 161.730469 122.878906 161.378906 C 122.746094 161.246094 123.324219 160.347656 124.007812 159.609375 C 124.652344 158.914062 125.25 158.800781 125.25 159.375 M 131.175781 168.6875 C 130.539062 169.921875 129.765625 170.839844 129.757812 170.378906 C 129.746094 169.933594 130.019531 169.421875 130.851562 168.320312 C 131.660156 167.246094 131.828125 167.433594 131.175781 168.6875 M 141.75 168.746094 C 141.75 169.105469 141.144531 170.4375 140.980469 170.4375 C 140.746094 170.4375 140.765625 170.285156 141.117188 169.367188 C 141.398438 168.636719 141.75 168.289062 141.75 168.746094 "/>
<path style=" stroke:none;fill-rule:nonzero;fill:rgb(34.117647%,54.509804%,25.098039%);fill-opacity:1;" d="M 123.273438 30 C 123.273438 34.796875 123.296875 36.757812 123.328125 34.359375 C 123.359375 31.960938 123.359375 28.039062 123.328125 25.640625 C 123.296875 23.242188 123.273438 25.203125 123.273438 30 M 127.585938 30.28125 C 127.585938 35.128906 127.609375 37.136719 127.640625 34.746094 C 127.667969 32.355469 127.667969 28.390625 127.640625 25.933594 C 127.609375 23.476562 127.585938 25.433594 127.585938 30.28125 M 172.21875 91.21875 C 172.21875 118.960938 172.238281 130.28125 172.265625 116.375 C 172.292969 102.472656 172.292969 79.773438 172.265625 65.9375 C 172.238281 52.101562 172.21875 63.476562 172.21875 91.21875 M 105.277344 92.53125 C 105.277344 99.957031 105.300781 102.964844 105.328125 99.222656 C 105.355469 95.476562 105.355469 89.398438 105.328125 85.722656 C 105.300781 82.042969 105.277344 85.105469 105.277344 92.53125 M 87.460938 85.6875 C 87.460938 89.246094 87.484375 90.699219 87.515625 88.921875 C 87.546875 87.144531 87.546875 84.230469 87.515625 82.453125 C 87.484375 80.675781 87.460938 82.128906 87.460938 85.6875 M 87.460938 99.28125 C 87.460938 102.890625 87.484375 104.339844 87.515625 102.503906 C 87.546875 100.667969 87.546875 97.714844 87.515625 95.941406 C 87.484375 94.167969 87.460938 95.671875 87.460938 99.28125 M 109.585938 100.03125 C 109.585938 103.433594 109.609375 104.851562 109.640625 103.183594 C 109.671875 101.515625 109.671875 98.730469 109.640625 96.996094 C 109.609375 95.261719 109.585938 96.628906 109.585938 100.03125 M 94.207031 101.625 C 94.207031 104.253906 94.234375 105.332031 94.265625 104.015625 C 94.296875 102.699219 94.296875 100.550781 94.265625 99.234375 C 94.234375 97.917969 94.207031 98.996094 94.207031 101.625 M 87.144531 124.789062 L 87.191406 139.125 L 56.019531 139.171875 L 24.84375 139.21875 L 87.28125 139.21875 L 87.328125 124.980469 C 87.355469 117.148438 87.3125 110.675781 87.234375 110.597656 C 87.15625 110.519531 87.117188 116.90625 87.144531 124.789062 M 105.460938 110.671875 C 105.410156 110.800781 105.394531 117.277344 105.421875 125.0625 L 105.46875 139.21875 L 167.71875 139.21875 L 136.636719 139.171875 L 105.558594 139.125 L 105.605469 124.78125 C 105.632812 116.890625 105.632812 110.4375 105.601562 110.4375 C 105.574219 110.4375 105.511719 110.542969 105.460938 110.671875 M 101.109375 124.917969 L 101.0625 139.117188 L 91.59375 139.226562 L 96.335938 139.269531 C 99.984375 139.300781 101.09375 139.257812 101.164062 139.078125 C 101.210938 138.949219 101.230469 132.515625 101.203125 124.78125 L 101.152344 110.71875 Z M 84.628906 149.851562 C 83.480469 151.414062 82.421875 153.386719 81.277344 156.09375 C 80.003906 159.105469 79.652344 159.59375 77.757812 161 C 74.335938 163.542969 72.847656 163.867188 73.714844 161.878906 C 74.214844 160.730469 74.152344 160.777344 74.609375 161.234375 C 75.832031 162.457031 77.472656 160.324219 76.601562 158.640625 C 75.902344 157.285156 74.230469 157.28125 72.691406 158.628906 C 71.804688 159.410156 70.75 160.007812 70.628906 159.796875 C 70.585938 159.71875 70.449219 159.339844 70.324219 158.957031 C 69.695312 157.007812 67.519531 156.984375 65.15625 158.902344 C 64.222656 159.65625 63.5625 159.898438 63.5625 159.480469 C 63.5625 159.320312 63.695312 159.1875 63.855469 159.1875 C 64.121094 159.1875 64.121094 159.160156 63.863281 158.898438 C 63.375 158.410156 63.945312 156.507812 64.640625 156.304688 C 64.820312 156.253906 66.0625 155.988281 67.402344 155.714844 C 71.421875 154.898438 71.238281 154.71875 66.75 155.074219 C 63.503906 155.328125 63.429688 155.347656 63.117188 155.957031 C 62.070312 157.996094 60.386719 164.164062 60.378906 165.984375 C 60.375 167.496094 60.65625 167.394531 62.175781 165.328125 C 67.234375 158.453125 67.585938 158.0625 68.671875 158.0625 C 70.503906 158.0625 68.867188 161.574219 66.738281 162.210938 C 66.078125 162.410156 66 162.496094 66 163.039062 C 66 165.140625 68.625 163.929688 72.140625 160.207031 C 74.46875 157.746094 74.996094 157.480469 75.851562 158.335938 C 76.414062 158.898438 76.414062 159.75 75.847656 160.613281 C 75.457031 161.207031 74.902344 161.230469 75.089844 160.640625 C 75.71875 158.683594 75.175781 158.277344 73.855469 159.714844 C 70.894531 162.933594 72.164062 165.199219 75.867188 163.308594 C 77.703125 162.375 80.625 160.074219 80.625 159.5625 C 80.625 159.363281 80.792969 158.835938 80.996094 158.394531 C 81.203125 157.953125 81.710938 156.707031 82.132812 155.625 C 82.910156 153.617188 84.191406 151.101562 85.164062 149.671875 C 85.9375 148.53125 85.484375 148.683594 84.628906 149.851562 M 85.796875 151.144531 C 85.402344 152.011719 84.65625 153.476562 84.136719 154.40625 C 82.273438 157.734375 81.96875 158.363281 81.585938 159.65625 C 81.226562 160.886719 80.628906 164.125 80.625 164.859375 C 80.625 165.535156 80.9375 165.125 81.988281 163.074219 C 84.523438 158.125 86.25 157.089844 86.25 160.523438 C 86.25 162.679688 87.152344 162.648438 89.234375 160.421875 C 89.835938 159.78125 89.695312 159.808594 88.382812 160.597656 C 87.136719 161.351562 86.8125 161.226562 86.8125 159.984375 C 86.8125 158.816406 86.210938 158.0625 85.277344 158.0625 C 84.859375 158.0625 83.4375 158.800781 83.4375 159.015625 C 83.4375 159.085938 83.300781 159.199219 83.136719 159.261719 C 82.566406 159.480469 83.023438 158.09375 84.644531 154.6875 C 86.25 151.304688 86.707031 150.152344 86.585938 149.785156 C 86.546875 149.667969 86.191406 150.28125 85.796875 151.144531 M 103.382812 150.351562 C 102.132812 151.902344 100.015625 157.125 99.445312 160.078125 C 98.625 164.316406 99.496094 169.003906 101.089844 168.925781 C 101.230469 168.917969 101.160156 168.824219 100.933594 168.714844 C 98.246094 167.414062 99.929688 155.574219 103.523438 150.53125 C 104.019531 149.832031 103.914062 149.695312 103.382812 150.351562 M 41.71875 150.9375 C 41.421875 151.246094 40.753906 151.664062 40.230469 151.867188 C 39.140625 152.285156 39.300781 152.339844 40.726562 152.042969 C 41.890625 151.796875 41.953125 151.753906 42.175781 150.972656 C 42.386719 150.242188 42.386719 150.242188 41.71875 150.9375 M 104.582031 150.703125 C 102.203125 153.398438 99.84375 162.304688 100.566406 165.851562 C 101.238281 169.160156 102.148438 168.34375 105.179688 161.722656 C 106.125 159.664062 107.175781 157.449219 107.519531 156.800781 C 107.863281 156.15625 108.074219 155.625 107.992188 155.625 C 107.445312 155.625 105.769531 158.640625 103.203125 164.25 C 101.757812 167.414062 101.367188 167.578125 101.035156 165.167969 C 100.585938 161.949219 102.347656 154.960938 104.554688 151.199219 C 105.058594 150.335938 105.070312 150.148438 104.582031 150.703125 M 43.125 151.03125 C 42.777344 151.683594 42.917969 151.742188 44.25 151.5 C 44.890625 151.382812 46.4375 151.175781 47.691406 151.039062 C 50.433594 150.742188 49.375 150.675781 46.246094 150.949219 C 44.3125 151.117188 43.976562 151.105469 43.699219 150.851562 C 43.402344 150.585938 43.355469 150.601562 43.125 151.03125 M 50.484375 150.691406 C 50.664062 150.738281 50.960938 150.738281 51.140625 150.691406 C 51.320312 150.644531 51.171875 150.605469 50.8125 150.605469 C 50.453125 150.605469 50.304688 150.644531 50.484375 150.691406 M 63.671875 151.515625 C 63.394531 151.84375 63.003906 152.4375 62.800781 152.835938 C 62.335938 153.742188 61.882812 154.03125 60.46875 154.316406 C 57.5625 154.898438 58.371094 155.160156 61.6875 154.707031 L 62.53125 154.59375 L 63.4375 152.84375 C 64.40625 150.972656 64.480469 150.554688 63.671875 151.515625 M 64.589844 152.851562 C 63.6875 154.644531 63.445312 154.523438 67.21875 154.144531 C 70.628906 153.800781 70.566406 153.613281 67.035156 153.570312 C 65.113281 153.546875 64.980469 153.480469 65.261719 152.667969 C 65.734375 151.320312 65.300781 151.4375 64.589844 152.851562 M 47.90625 151.898438 C 47.082031 151.988281 45.523438 152.167969 44.441406 152.296875 L 42.476562 152.53125 L 41.972656 153.84375 C 41.324219 155.527344 39.855469 160.480469 39.96875 160.59375 C 40.066406 160.691406 43.574219 160.050781 44.109375 159.839844 C 44.636719 159.632812 44.492188 159.316406 43.921875 159.429688 C 43.636719 159.488281 42.867188 159.59375 42.203125 159.667969 L 41.003906 159.804688 L 41.121094 158.828125 C 41.375 156.683594 42.609375 153.375 43.292969 153.007812 C 43.730469 152.777344 46.597656 152.296875 49.5 151.976562 C 51.09375 151.796875 51.363281 151.734375 50.53125 151.734375 C 49.914062 151.738281 48.730469 151.8125 47.90625 151.898438 M 114.101562 153.515625 C 113.636719 157.320312 111.261719 164.550781 110.085938 165.726562 C 108.570312 167.242188 108.273438 164.773438 109.234375 158.675781 C 109.386719 157.722656 109.453125 156.714844 109.382812 156.4375 L 109.253906 155.929688 L 109.082031 156.386719 C 108.128906 158.953125 107.554688 164.273438 108.085938 165.660156 C 109.699219 169.886719 113.816406 162.484375 114.316406 154.453125 C 114.433594 152.5625 114.292969 151.945312 114.101562 153.515625 M 39.65625 153.089844 L 38.90625 153.335938 L 39.519531 153.355469 C 40.535156 153.386719 40.496094 153.71875 38.78125 159.335938 C 38.675781 159.671875 38.324219 160.199219 38 160.503906 L 37.40625 161.0625 L 37.921875 161.0625 C 38.472656 161.0625 39.1875 160.488281 39.1875 160.046875 C 39.1875 159.644531 40.585938 154.914062 41.035156 153.796875 L 41.433594 152.8125 L 40.917969 152.828125 C 40.636719 152.835938 40.070312 152.953125 39.65625 153.089844 M 115.429688 153.421875 C 115.386719 153.652344 115.179688 155.023438 114.96875 156.46875 C 113.671875 165.34375 109.5625 170.734375 107.417969 166.378906 C 106.855469 165.238281 106.8125 162.722656 107.316406 160.339844 C 107.777344 158.136719 107.652344 158.257812 106.3125 161.292969 C 104.535156 165.316406 103.507812 167.234375 102.652344 168.128906 C 102.226562 168.574219 101.933594 168.9375 102.003906 168.9375 C 102.460938 168.9375 103.550781 167.851562 104.527344 166.417969 C 105.941406 164.347656 105.902344 164.355469 106.644531 165.9375 C 108.253906 169.359375 110.714844 168.863281 113.429688 164.566406 C 114.339844 163.125 114.457031 163.074219 114.828125 163.964844 C 115.460938 165.476562 117.445312 165.78125 119.769531 164.726562 L 120.949219 164.195312 L 121.394531 164.613281 C 122.78125 165.917969 124.9375 165.5625 127.734375 163.570312 C 128.835938 162.789062 129.078125 162.78125 129.382812 163.523438 C 129.535156 163.890625 129.859375 164.207031 130.25 164.371094 C 131.078125 164.714844 131.058594 164.839844 129.765625 167.316406 C 128.578125 169.585938 128.277344 170.570312 128.601562 171.125 C 128.773438 171.425781 128.800781 171.394531 128.8125 170.90625 C 128.824219 170.070312 129.417969 168.910156 130.632812 167.335938 C 132.394531 165.050781 132.5625 164.78125 132.5625 164.234375 C 132.5625 163.5625 132.066406 163.058594 131.550781 163.207031 C 129.855469 163.695312 129.691406 163.414062 130.851562 162.027344 C 132.265625 160.332031 133.507812 158.195312 133.234375 157.921875 C 132.941406 157.628906 129.75 159.738281 129.75 160.222656 C 129.75 161.15625 124.628906 165 123.386719 165 C 122.382812 165 121.519531 163.769531 121.734375 162.640625 C 121.851562 162.03125 121.808594 162.050781 120.632812 163.097656 C 118.421875 165.070312 116.445312 165.53125 115.773438 164.238281 C 114.699219 162.15625 117.210938 157.652344 119.171875 158.144531 C 120.617188 158.507812 119.367188 161.097656 117.273438 162.089844 C 116.21875 162.589844 116.121094 162.761719 116.433594 163.582031 C 116.925781 164.878906 120.933594 162.445312 123 159.59375 C 124.5 157.523438 126.734375 157.628906 125.890625 159.730469 C 125.527344 160.648438 123.972656 162.109375 123.183594 162.28125 C 122.027344 162.535156 122.589844 164.230469 123.753906 163.996094 C 124.925781 163.761719 129 160.523438 129 159.828125 C 129 159.277344 131.699219 157.277344 132.882812 156.949219 C 134.773438 156.429688 134.710938 157.988281 132.726562 160.917969 C 131.867188 162.191406 131.859375 162.25 132.472656 162.53125 C 132.730469 162.648438 133.042969 162.976562 133.164062 163.261719 C 133.289062 163.546875 133.40625 163.8125 133.429688 163.847656 C 133.613281 164.121094 137.917969 159.84375 138.378906 158.925781 C 139.046875 157.605469 139 157.613281 137.566406 159.046875 C 136.433594 160.179688 134.746094 161.25 134.496094 160.996094 C 134.425781 160.925781 134.476562 160.207031 134.609375 159.398438 C 135.207031 155.714844 132.457031 155.625 128.523438 159.195312 C 126.824219 160.738281 126.75 160.757812 126.75 159.640625 C 126.75 157.355469 124.890625 157.128906 122.183594 159.089844 C 121.066406 159.898438 120.980469 159.902344 120.664062 159.140625 C 119.976562 157.5 118.328125 157.203125 116.589844 158.398438 C 115.496094 159.148438 115.488281 159.121094 115.625 155.601562 C 115.71875 153.246094 115.632812 152.3125 115.429688 153.421875 M 60.316406 155.730469 C 58.074219 156.105469 58.003906 156.21875 59.859375 156.464844 C 60.914062 156.609375 60.953125 156.769531 60.28125 158.21875 C 59.382812 160.152344 58.613281 160.449219 57.507812 159.292969 C 56.769531 158.523438 56.605469 158.4375 55.835938 158.4375 C 55.027344 158.4375 54.976562 158.40625 54.863281 157.835938 C 54.699219 157.003906 54.472656 157.359375 53.25 160.386719 C 52.117188 163.199219 52.128906 163.386719 53.324219 161.632812 C 55.515625 158.429688 56.949219 158.246094 56.988281 161.167969 C 57.027344 163.960938 60.128906 161.632812 61.429688 157.832031 C 62.34375 155.15625 62.460938 155.371094 60.316406 155.730469 M 53.394531 157.136719 C 53.214844 157.242188 52.804688 157.714844 52.480469 158.1875 C 52.15625 158.660156 51.28125 159.648438 50.539062 160.382812 C 49.796875 161.117188 49.050781 161.925781 48.882812 162.175781 C 48.4375 162.828125 48.261719 162.503906 48.523438 161.523438 C 48.808594 160.46875 48.8125 159.714844 48.535156 159.109375 C 48.382812 158.773438 48.378906 158.566406 48.519531 158.394531 C 48.671875 158.214844 48.609375 158.148438 48.257812 158.128906 C 47.886719 158.105469 47.839844 158.152344 48.015625 158.363281 C 48.136719 158.507812 48.171875 158.625 48.09375 158.625 C 48.015625 158.625 48.050781 158.742188 48.171875 158.886719 C 48.335938 159.085938 48.273438 159.480469 47.894531 160.613281 C 46.433594 164.960938 47.375 165.332031 50.730469 161.738281 C 52.109375 160.261719 52.667969 159.511719 52.996094 158.6875 C 53.234375 158.085938 53.515625 157.445312 53.621094 157.265625 C 53.84375 156.886719 53.832031 156.882812 53.394531 157.136719 M 141.59375 158.632812 C 139.957031 160.183594 139.910156 160.191406 139.839844 159.046875 L 139.78125 158.15625 L 139.238281 159.25 C 138.6875 160.347656 138.351562 162.1875 138.699219 162.1875 C 139.304688 162.1875 143.25 158.082031 143.25 157.457031 C 143.25 157.140625 142.910156 157.382812 141.59375 158.632812 M 144.089844 158.953125 C 144.023438 159.546875 143.84375 160.867188 143.695312 161.886719 C 143.414062 163.855469 143.476562 164.25 143.96875 163.515625 C 144.136719 163.269531 144.84375 162.351562 145.542969 161.476562 C 146.242188 160.605469 146.8125 159.855469 146.8125 159.816406 C 146.8125 159.667969 145.75 160.292969 145.511719 160.582031 C 145.003906 161.191406 144.75 160.925781 144.746094 159.796875 C 144.742188 157.738281 144.296875 157.164062 144.089844 158.953125 M 47.207031 159.019531 C 46.855469 159.28125 46.574219 159.785156 46.316406 160.625 C 45.246094 164.089844 46.507812 166.25 49 165.21875 C 50.226562 164.707031 50.183594 164.703125 50.53125 165.375 C 50.894531 166.082031 51.144531 166.101562 51.046875 165.414062 C 50.976562 164.953125 51.339844 163.179688 51.695312 162.242188 C 51.765625 162.054688 51.167969 162.558594 50.367188 163.355469 C 46.917969 166.796875 44.980469 164.355469 47.324219 159.515625 C 47.5625 159.027344 47.746094 158.628906 47.738281 158.632812 C 47.726562 158.632812 47.488281 158.808594 47.207031 159.019531 M 67.710938 159.476562 C 67.085938 160.003906 66.273438 161.210938 66.4375 161.375 C 66.710938 161.648438 68.625 159.804688 68.625 159.265625 C 68.625 158.875 68.351562 158.9375 67.710938 159.476562 M 118.152344 159.300781 C 117.699219 159.621094 116.625 161.007812 116.625 161.277344 C 116.625 161.628906 117.0625 161.394531 117.945312 160.566406 C 119.109375 159.476562 119.269531 158.519531 118.152344 159.300781 M 124.484375 159.277344 C 123.734375 159.6875 122.664062 161.4375 123.167969 161.4375 C 123.480469 161.4375 125.25 159.636719 125.25 159.320312 C 125.25 158.9375 125.125 158.929688 124.484375 159.277344 M 141.84375 160.628906 C 139.429688 163.292969 137.804688 163.832031 137.738281 161.996094 C 137.714844 161.269531 137.75 161.246094 135.488281 163.285156 L 133.542969 165.039062 L 132.773438 167.035156 C 132.238281 168.429688 131.691406 169.449219 130.964844 170.414062 C 130.390625 171.175781 130.058594 171.742188 130.226562 171.679688 C 130.394531 171.617188 130.558594 171.5625 130.59375 171.5625 C 130.863281 171.5625 132.695312 168.863281 133.457031 167.34375 C 134.875 164.515625 137.261719 162.453125 137.90625 163.5 C 138.1875 163.957031 139.707031 163.652344 141.421875 162.789062 C 141.976562 162.511719 141.515625 165.445312 140.734375 167.1875 C 139.625 169.644531 139.460938 171.5625 140.355469 171.5625 C 140.40625 171.5625 140.363281 171.398438 140.257812 171.199219 C 139.8125 170.371094 140.15625 169.265625 141.5625 166.96875 C 142.269531 165.816406 143.5625 159.625 143.179688 159.242188 C 143.15625 159.21875 142.554688 159.84375 141.84375 160.628906 M 84.367188 160.632812 C 83.640625 161.644531 80.796875 167.0625 80.992188 167.0625 C 81.246094 167.0625 81.910156 166.195312 82.957031 164.5 C 84.371094 162.207031 84.429688 162.167969 85.171875 162.929688 C 86.195312 163.972656 89.289062 162.929688 90.195312 161.234375 C 90.324219 160.992188 89.976562 161.167969 89.214844 161.730469 C 86.285156 163.886719 85.3125 163.640625 85.3125 160.753906 C 85.3125 159.523438 85.175781 159.507812 84.367188 160.632812 M 54.921875 160.941406 C 54 162.007812 53.222656 163.1875 52.527344 164.566406 C 52.207031 165.207031 51.792969 165.820312 51.613281 165.933594 C 51.332031 166.109375 51.355469 166.125 51.75 166.027344 C 52.007812 165.960938 52.5 165.597656 52.84375 165.21875 C 55.007812 162.828125 54.929688 162.867188 56.0625 163.617188 C 56.472656 163.886719 57.191406 164.152344 57.660156 164.203125 C 58.609375 164.3125 58.78125 164.515625 58.859375 165.648438 C 59.078125 168.816406 60.550781 169.136719 63.140625 166.574219 C 64.015625 165.707031 64.753906 165 64.78125 165 C 64.808594 165 65.152344 165.136719 65.550781 165.300781 C 66.507812 165.703125 67.542969 165.566406 69.101562 164.835938 C 70.332031 164.261719 71.0625 164.097656 71.0625 164.402344 C 71.0625 164.488281 71.390625 164.742188 71.792969 164.964844 C 73.105469 165.703125 75.285156 165.429688 77.664062 164.230469 C 78.90625 163.601562 78.976562 163.648438 79.210938 165.273438 C 79.480469 167.113281 79.875 167.171875 79.878906 165.371094 C 79.882812 164.496094 80 163.234375 80.140625 162.5625 C 80.28125 161.890625 80.386719 161.328125 80.371094 161.3125 C 80.355469 161.292969 79.625 161.832031 78.75 162.507812 C 74.765625 165.585938 71.4375 165.8125 71.4375 163.007812 L 71.4375 162.160156 L 70.453125 163.023438 C 67.871094 165.289062 65.625 165.578125 65.320312 163.675781 C 65.164062 162.691406 65.140625 162.707031 63.84375 164.5625 C 59.960938 170.121094 58.65625 169.257812 60.117188 162.09375 L 60.234375 161.53125 L 59.414062 162.304688 C 57.476562 164.136719 56.484375 163.800781 56.167969 161.203125 C 56.011719 159.921875 55.832031 159.882812 54.921875 160.941406 M 44.625 160.671875 C 44.46875 160.761719 43.335938 161.011719 42.105469 161.226562 C 39.394531 161.707031 39.683594 161.421875 39.089844 164.222656 C 38.472656 167.15625 38.554688 167.222656 39.441406 164.523438 C 40.242188 162.097656 40.171875 162.164062 42.375 161.71875 C 44.023438 161.382812 45 161 45 160.683594 C 45 160.464844 44.988281 160.464844 44.625 160.671875 M 146.019531 162.328125 C 143.425781 165.453125 142.523438 167.203125 142.503906 169.144531 C 142.5 169.3125 142.265625 169.914062 141.976562 170.484375 C 141.628906 171.175781 141.542969 171.484375 141.722656 171.417969 C 142.050781 171.289062 143.121094 168.980469 143.421875 167.742188 C 143.730469 166.460938 144.109375 165.789062 145.949219 163.234375 C 147.425781 161.191406 147.726562 160.6875 147.472656 160.6875 C 147.425781 160.6875 146.769531 161.425781 146.019531 162.328125 M 37.929688 161.957031 C 37.566406 162.015625 37.542969 162.078125 37.726562 162.476562 C 37.882812 162.820312 37.851562 163.40625 37.605469 164.917969 C 37.152344 167.679688 37.34375 167.542969 38.039062 164.597656 C 38.644531 162.046875 38.636719 161.839844 37.929688 161.957031 M 130.835938 168.417969 C 130.253906 169.179688 129.691406 170.253906 129.8125 170.375 C 129.925781 170.488281 130.734375 169.40625 131.148438 168.59375 C 131.574219 167.75 131.410156 167.660156 130.835938 168.417969 M 141.148438 169.472656 C 140.980469 169.902344 140.910156 170.25 140.992188 170.25 C 141.195312 170.25 141.617188 169.199219 141.527344 168.921875 C 141.484375 168.800781 141.316406 169.046875 141.148438 169.472656 "/>
<path style=" stroke:none;fill-rule:nonzero;fill:rgb(38.431373%,65.098039%,26.666667%);fill-opacity:1;" d="M 65.105469 30.234375 L 65.0625 38.8125 L 22.40625 38.90625 L 43.742188 38.953125 C 60.667969 38.992188 65.09375 38.953125 65.164062 38.765625 C 65.214844 38.636719 65.230469 34.734375 65.203125 30.09375 L 65.152344 21.65625 Z M 83.125 38.578125 C 90.53125 38.605469 102.597656 38.605469 109.9375 38.578125 C 117.277344 38.550781 111.214844 38.527344 96.46875 38.527344 C 81.722656 38.527344 75.714844 38.550781 83.125 38.578125 M 138.34375 38.953125 C 144.253906 38.980469 153.875 38.980469 159.71875 38.953125 C 165.5625 38.925781 160.726562 38.902344 148.96875 38.902344 C 137.210938 38.902344 132.429688 38.925781 138.34375 38.953125 M 20.53125 91.21875 C 20.53125 118.960938 20.550781 130.28125 20.578125 116.375 C 20.605469 102.472656 20.605469 79.773438 20.578125 65.9375 C 20.550781 52.101562 20.53125 63.476562 20.53125 91.21875 M 92.308594 78.890625 C 94.664062 78.921875 98.460938 78.921875 100.746094 78.890625 C 103.035156 78.859375 101.109375 78.835938 96.46875 78.835938 C 91.828125 78.835938 89.957031 78.859375 92.308594 78.890625 M 93.984375 110.765625 C 95.300781 110.796875 97.449219 110.796875 98.765625 110.765625 C 100.082031 110.734375 99.003906 110.707031 96.375 110.707031 C 93.746094 110.707031 92.667969 110.734375 93.984375 110.765625 M 59.578125 143.578125 C 79.917969 143.605469 113.207031 143.605469 133.546875 143.578125 C 153.886719 143.550781 137.246094 143.53125 96.5625 143.53125 C 55.878906 143.53125 39.238281 143.550781 59.578125 143.578125 M 85.21875 148.019531 C 84.910156 148.152344 84.332031 148.570312 83.941406 148.945312 C 83.546875 149.320312 83.144531 149.625 83.050781 149.625 C 82.753906 149.625 81.378906 150.960938 80.5 152.105469 C 80.039062 152.703125 79.605469 153.160156 79.535156 153.121094 C 79.464844 153.082031 79.195312 153.308594 78.9375 153.625 C 78.679688 153.945312 78.585938 154.132812 78.726562 154.046875 C 78.90625 153.933594 78.960938 153.964844 78.902344 154.144531 C 78.710938 154.734375 77.210938 155.328125 75.917969 155.328125 C 74.617188 155.328125 72.199219 154.390625 72.179688 153.878906 C 72.167969 153.59375 70.3125 152.152344 70.3125 152.433594 C 70.3125 152.546875 69.996094 152.394531 69.609375 152.085938 C 69.222656 151.78125 68.378906 151.25 67.734375 150.90625 C 67.089844 150.5625 66.371094 150.175781 66.140625 150.050781 C 65.210938 149.539062 62.789062 149.976562 60.769531 151.019531 C 60.476562 151.171875 60.167969 151.238281 60.085938 151.164062 C 60.007812 151.089844 60 151.136719 60.074219 151.265625 C 60.191406 151.472656 60.109375 151.523438 59.707031 151.492188 C 59.652344 151.488281 59.460938 151.640625 59.285156 151.828125 C 59.113281 152.019531 59.054688 152.042969 59.15625 151.882812 C 59.320312 151.632812 59.300781 151.625 59.015625 151.851562 C 58.835938 151.992188 58.6875 152.21875 58.6875 152.355469 C 58.6875 152.492188 58.480469 152.714844 58.230469 152.847656 C 57.976562 152.984375 57.375 153.335938 56.894531 153.632812 C 56.191406 154.058594 55.777344 154.175781 54.835938 154.195312 C 54.191406 154.207031 53.757812 154.28125 53.878906 154.355469 C 54.039062 154.457031 54.035156 154.496094 53.867188 154.496094 C 53.742188 154.5 53.410156 154.269531 53.125 153.984375 C 52.796875 153.65625 52.65625 153.585938 52.738281 153.796875 C 52.886719 154.183594 52.71875 154.207031 52.265625 153.863281 C 51.863281 153.558594 51.832031 152.820312 52.21875 152.789062 C 52.375 152.777344 52.585938 152.746094 52.6875 152.71875 C 52.789062 152.691406 53.007812 152.660156 53.164062 152.648438 C 54.011719 152.578125 53.125 149.855469 52.238281 149.800781 C 52.125 149.792969 51.722656 149.746094 51.34375 149.703125 C 50.964844 149.65625 49.785156 149.589844 48.71875 149.554688 C 47.652344 149.519531 45.789062 149.378906 44.574219 149.242188 C 42.050781 148.964844 41.949219 148.992188 39.75 150.5625 C 39.390625 150.820312 38.699219 151.214844 38.21875 151.4375 C 36.925781 152.039062 36.480469 153.207031 37.132812 154.277344 C 37.550781 154.96875 37.476562 155.582031 36.585938 158.71875 C 36.015625 160.726562 35.859375 162.542969 36.183594 163.394531 C 36.332031 163.789062 36.324219 163.992188 36.144531 164.214844 C 35.984375 164.410156 35.980469 164.464844 36.128906 164.375 C 36.25 164.304688 36.398438 164.324219 36.457031 164.421875 C 36.519531 164.519531 36.480469 164.652344 36.375 164.71875 C 36.269531 164.785156 36.234375 164.921875 36.296875 165.027344 C 36.363281 165.132812 36.429688 165.800781 36.449219 166.515625 C 36.515625 168.992188 38.546875 169.519531 39.476562 167.300781 C 39.617188 166.964844 39.820312 166.6875 39.929688 166.6875 C 40.035156 166.6875 40.125 166.5625 40.125 166.40625 C 40.125 166.25 40.1875 166.136719 40.265625 166.15625 C 40.402344 166.183594 40.753906 166.070312 41.53125 165.746094 C 42.777344 165.230469 43.644531 165.351562 45.539062 166.300781 C 48.09375 167.582031 51.476562 168.253906 53.15625 167.808594 C 53.640625 167.679688 55.441406 167.734375 55.246094 167.871094 C 55.125 167.960938 55.285156 167.996094 55.628906 167.953125 C 55.960938 167.914062 56.1875 167.949219 56.136719 168.035156 C 56.054688 168.164062 56.328125 168.226562 56.746094 168.171875 C 56.808594 168.164062 56.929688 168.261719 57.011719 168.394531 C 57.09375 168.523438 57.523438 168.738281 57.96875 168.867188 C 61.027344 169.753906 60.953125 169.742188 62.335938 169.492188 C 63.0625 169.363281 63.847656 169.261719 64.078125 169.265625 C 64.3125 169.269531 64.445312 169.1875 64.382812 169.085938 C 64.308594 168.96875 64.421875 168.949219 64.6875 169.03125 C 64.972656 169.121094 65.066406 169.097656 64.980469 168.960938 C 64.902344 168.832031 64.964844 168.796875 65.148438 168.867188 C 65.308594 168.925781 65.4375 168.878906 65.4375 168.757812 C 65.4375 168.640625 65.523438 168.59375 65.632812 168.660156 C 65.875 168.8125 67.699219 168.359375 67.585938 168.175781 C 67.542969 168.101562 67.671875 168 67.878906 167.945312 C 68.082031 167.890625 68.25 167.925781 68.25 168.019531 C 68.25 168.109375 68.421875 168.1875 68.636719 168.1875 C 68.847656 168.1875 68.976562 168.113281 68.921875 168.023438 C 68.8125 167.847656 69.851562 167.628906 70.828125 167.628906 C 71.164062 167.625 71.4375 167.710938 71.4375 167.8125 C 71.4375 167.914062 71.710938 168 72.046875 167.996094 C 72.507812 167.996094 72.589844 167.949219 72.375 167.8125 C 71.902344 167.507812 75.152344 167.59375 77.476562 167.949219 C 81.277344 168.53125 81.179688 168.554688 86.15625 165.816406 C 89.511719 163.972656 90.714844 162.972656 91.132812 161.683594 C 91.257812 161.289062 91.433594 160.875 91.523438 160.761719 C 91.792969 160.421875 91.492188 159.433594 90.980469 158.964844 C 90.71875 158.726562 90.5625 158.636719 90.636719 158.761719 C 90.726562 158.917969 90.675781 158.960938 90.480469 158.882812 C 90.316406 158.824219 90.1875 158.695312 90.1875 158.605469 C 90.1875 158.511719 90.066406 158.4375 89.917969 158.4375 C 88.730469 158.4375 87.824219 155.699219 87.652344 151.59375 C 87.507812 148.128906 86.929688 147.277344 85.21875 148.019531 M 86.550781 149.675781 C 86.492188 150.722656 85.949219 152.101562 84.261719 155.46875 C 82.96875 158.054688 82.46875 159.941406 83.292969 159.117188 C 84.964844 157.445312 86.8125 157.902344 86.8125 159.984375 C 86.8125 161.226562 87.136719 161.351562 88.382812 160.597656 C 89.738281 159.78125 89.839844 159.777344 89.144531 160.546875 C 88.703125 161.039062 88.746094 161.019531 89.363281 160.445312 C 90.390625 159.488281 91.003906 159.902344 90.074219 160.925781 C 89.679688 161.363281 89.652344 161.425781 89.980469 161.152344 L 90.429688 160.78125 L 90.210938 161.195312 C 89.308594 162.917969 86.207031 163.984375 85.171875 162.929688 C 84.429688 162.167969 84.371094 162.207031 82.957031 164.5 C 81.386719 167.042969 80.660156 167.566406 80.019531 166.613281 C 79.929688 166.476562 79.878906 166.503906 79.878906 166.683594 C 79.871094 167.292969 79.34375 166.171875 79.210938 165.273438 C 78.976562 163.648438 78.90625 163.601562 77.664062 164.230469 C 75.285156 165.429688 73.105469 165.703125 71.792969 164.964844 C 71.390625 164.742188 71.0625 164.488281 71.0625 164.402344 C 71.0625 164.097656 70.332031 164.261719 69.101562 164.835938 C 67.542969 165.566406 66.507812 165.703125 65.550781 165.300781 C 65.152344 165.136719 64.808594 165 64.78125 165 C 64.753906 165 64.015625 165.707031 63.140625 166.574219 C 60.550781 169.136719 59.078125 168.816406 58.859375 165.648438 C 58.78125 164.515625 58.609375 164.3125 57.660156 164.203125 C 57.191406 164.152344 56.472656 163.886719 56.0625 163.617188 C 54.929688 162.867188 55.007812 162.828125 52.84375 165.21875 C 52.5 165.597656 52.007812 165.96875 51.75 166.042969 L 51.28125 166.175781 L 51.664062 165.820312 C 51.875 165.628906 51.941406 165.542969 51.808594 165.628906 C 51.675781 165.71875 51.433594 165.742188 51.273438 165.679688 C 51.105469 165.613281 51.027344 165.644531 51.09375 165.753906 C 51.15625 165.855469 51.121094 165.9375 51.015625 165.9375 C 50.910156 165.9375 50.691406 165.683594 50.53125 165.375 C 50.183594 164.703125 50.226562 164.707031 49 165.21875 C 46.511719 166.246094 45.246094 164.089844 46.3125 160.636719 C 46.726562 159.296875 46.910156 159.082031 47.671875 159.035156 C 48.039062 159.011719 48.1875 159.09375 48.1875 159.3125 C 48.1875 159.484375 48.238281 159.570312 48.304688 159.507812 C 48.367188 159.445312 48.363281 159.238281 48.292969 159.054688 C 48.222656 158.871094 48.191406 158.710938 48.222656 158.699219 C 48.253906 158.691406 48.195312 158.5625 48.089844 158.417969 C 47.757812 157.964844 47.863281 157.046875 48.253906 156.972656 C 48.726562 156.878906 49.019531 157.210938 48.839844 157.628906 C 48.757812 157.816406 48.675781 158.011719 48.65625 158.0625 C 48.636719 158.113281 48.5625 158.296875 48.484375 158.46875 C 48.410156 158.640625 48.4375 158.953125 48.546875 159.160156 C 48.8125 159.652344 48.804688 160.480469 48.523438 161.523438 C 48.261719 162.503906 48.4375 162.828125 48.882812 162.175781 C 49.050781 161.925781 49.796875 161.117188 50.539062 160.382812 C 51.28125 159.648438 52.15625 158.65625 52.480469 158.183594 C 53.214844 157.117188 53.636719 156.859375 54.097656 157.199219 C 54.300781 157.347656 54.378906 157.546875 54.296875 157.707031 C 54.222656 157.851562 54.292969 157.804688 54.453125 157.609375 C 54.734375 157.261719 54.75 157.269531 54.867188 157.839844 C 54.976562 158.40625 55.027344 158.4375 55.835938 158.4375 C 56.605469 158.4375 56.769531 158.523438 57.507812 159.292969 C 58.613281 160.449219 59.382812 160.152344 60.28125 158.21875 C 60.953125 156.769531 60.914062 156.609375 59.859375 156.464844 C 58.570312 156.292969 58.304688 156.167969 58.875 155.992188 L 59.34375 155.851562 L 58.828125 155.832031 C 58.257812 155.808594 58.078125 155.253906 58.640625 155.246094 C 58.878906 155.246094 58.90625 155.203125 58.730469 155.09375 C 58.40625 154.886719 59.035156 154.609375 60.476562 154.316406 C 61.9375 154.019531 62.277344 153.785156 62.953125 152.589844 C 63.480469 151.65625 64.3125 150.699219 64.3125 151.023438 C 64.3125 151.105469 64.433594 151.070312 64.585938 150.945312 C 64.957031 150.636719 65.292969 150.882812 65.144531 151.351562 C 65.0625 151.605469 65.089844 151.691406 65.230469 151.605469 C 65.496094 151.441406 65.5 152.054688 65.242188 152.738281 C 64.960938 153.476562 65.097656 153.527344 67.726562 153.613281 C 70.105469 153.691406 70.6875 153.851562 70.6875 154.429688 C 70.6875 154.589844 70.460938 154.695312 70.078125 154.707031 C 69.515625 154.722656 69.503906 154.734375 69.9375 154.855469 C 70.578125 155.035156 70.300781 155.128906 67.355469 155.726562 C 66.042969 155.992188 64.820312 156.253906 64.640625 156.304688 C 63.945312 156.507812 63.375 158.410156 63.863281 158.898438 C 64.121094 159.160156 64.121094 159.1875 63.855469 159.1875 C 63.695312 159.1875 63.5625 159.320312 63.5625 159.480469 C 63.5625 159.898438 64.222656 159.65625 65.15625 158.902344 C 67.519531 156.984375 69.695312 157.007812 70.324219 158.957031 C 70.449219 159.339844 70.585938 159.71875 70.628906 159.796875 C 70.75 160.007812 71.804688 159.410156 72.691406 158.628906 C 74.230469 157.28125 75.902344 157.285156 76.601562 158.640625 C 77.472656 160.324219 75.832031 162.457031 74.609375 161.234375 C 74.152344 160.777344 74.214844 160.730469 73.714844 161.878906 C 72.847656 163.867188 74.335938 163.542969 77.757812 161 C 79.652344 159.59375 80.003906 159.105469 81.277344 156.09375 C 82.960938 152.117188 84.742188 149.226562 85.777344 148.789062 C 86.546875 148.46875 86.617188 148.546875 86.550781 149.675781 M 104.265625 148.648438 C 103.777344 148.726562 101.582031 150.886719 101.148438 151.714844 C 101.003906 151.988281 100.523438 152.746094 100.082031 153.402344 C 98.753906 155.367188 97.832031 157.710938 97.417969 160.164062 C 96.789062 163.886719 97.695312 167.769531 99.519531 169.171875 C 100.332031 169.800781 101.460938 170.128906 102.363281 170 C 105.242188 169.589844 106.105469 169.515625 108.039062 169.507812 C 110.09375 169.5 111.390625 169.296875 112.765625 168.761719 C 113.066406 168.644531 113.429688 168.59375 113.574219 168.648438 C 113.714844 168.699219 113.78125 168.664062 113.71875 168.558594 C 113.597656 168.367188 113.714844 168.332031 114.65625 168.285156 C 116.507812 168.191406 116.734375 168.15625 116.25 168.015625 C 115.296875 167.746094 117.703125 167.640625 120.933594 167.816406 C 124.089844 167.988281 125.75 168.40625 125.859375 169.058594 C 125.875 169.148438 125.953125 169.304688 126.039062 169.40625 C 126.125 169.507812 126.550781 170.140625 126.988281 170.8125 C 127.957031 172.304688 128.09375 172.449219 128.71875 172.6875 C 130.175781 173.242188 132.714844 172.46875 134.367188 170.96875 C 134.585938 170.769531 134.9375 170.59375 135.148438 170.574219 C 135.363281 170.558594 135.503906 170.492188 135.460938 170.425781 C 135.421875 170.359375 135.605469 170.207031 135.871094 170.082031 C 136.292969 169.890625 136.34375 169.902344 136.242188 170.164062 C 136.128906 170.457031 136.300781 170.449219 137.160156 170.125 C 137.332031 170.0625 138.121094 170.757812 139.207031 171.925781 C 141.828125 174.746094 146.988281 168.605469 148.5 160.855469 C 148.730469 159.660156 148.605469 159.355469 147.589844 158.660156 C 147.101562 158.328125 146.410156 157.773438 146.054688 157.433594 C 144.679688 156.113281 144.648438 156.105469 140.632812 155.984375 C 137.460938 155.886719 136.71875 155.804688 135.09375 155.367188 C 133.226562 154.863281 129.941406 154.707031 129.9375 155.125 C 129.9375 155.210938 129.664062 155.226562 129.328125 155.160156 C 128.851562 155.066406 128.777344 155.085938 129 155.253906 C 129.21875 155.417969 129.132812 155.441406 128.59375 155.351562 C 128.128906 155.277344 127.875 155.316406 127.796875 155.480469 C 127.726562 155.636719 127.65625 155.652344 127.589844 155.515625 C 127.484375 155.304688 123.492188 155.316406 122.8125 155.53125 C 121.933594 155.808594 118.464844 154.835938 118.550781 154.335938 C 118.574219 154.191406 118.402344 154.042969 118.160156 154.003906 C 117.46875 153.894531 116.878906 153.34375 116.519531 152.472656 C 115.761719 150.648438 113.605469 150.675781 113.144531 152.515625 C 113.078125 152.78125 112.941406 153 112.84375 153 C 112.746094 153 112.3125 153.160156 111.878906 153.351562 C 108.953125 154.664062 105.636719 153.355469 105.859375 150.980469 C 106.027344 149.234375 105.488281 148.449219 104.265625 148.648438 M 105.125 149.539062 C 105.1875 149.707031 105.046875 150.042969 104.789062 150.332031 C 104.472656 150.6875 104.449219 150.753906 104.710938 150.558594 C 105.015625 150.328125 104.992188 150.429688 104.574219 151.152344 C 102.332031 155.023438 100.585938 161.933594 101.035156 165.167969 C 101.367188 167.578125 101.757812 167.414062 103.203125 164.25 C 105.847656 158.472656 107.441406 155.625 108.035156 155.625 C 108.152344 155.625 108.128906 155.761719 107.980469 155.953125 C 107.738281 156.265625 107.746094 156.265625 108.109375 155.957031 C 108.527344 155.601562 108.925781 155.796875 108.949219 156.367188 C 108.960938 156.570312 109.007812 156.546875 109.109375 156.289062 C 109.425781 155.472656 109.507812 156.960938 109.234375 158.675781 C 108.433594 163.761719 108.484375 166.125 109.398438 166.125 C 110.695312 166.125 112.984375 159.972656 114.171875 153.292969 C 114.460938 151.667969 115.308594 151.363281 115.316406 152.882812 C 115.316406 153.34375 115.359375 153.410156 115.511719 153.1875 C 115.648438 152.988281 115.679688 153.695312 115.613281 155.554688 C 115.492188 159.128906 115.496094 159.148438 116.589844 158.398438 C 118.328125 157.203125 119.976562 157.5 120.664062 159.140625 C 120.980469 159.902344 121.066406 159.898438 122.183594 159.089844 C 124.890625 157.128906 126.75 157.355469 126.75 159.640625 C 126.75 160.757812 126.824219 160.738281 128.523438 159.195312 C 132.457031 155.625 135.207031 155.714844 134.609375 159.398438 C 134.476562 160.207031 134.425781 160.925781 134.496094 160.996094 C 134.75 161.25 136.433594 160.179688 137.574219 159.039062 C 138.757812 157.855469 139.761719 157.613281 139.421875 158.59375 C 139.335938 158.832031 139.378906 158.820312 139.59375 158.542969 C 139.855469 158.203125 139.875 158.238281 139.875 159.058594 C 139.875 160.195312 139.953125 160.175781 141.589844 158.660156 C 143.703125 156.707031 144.59375 156.949219 144.722656 159.507812 C 144.792969 160.914062 145 161.195312 145.511719 160.582031 C 145.8125 160.214844 146.90625 159.632812 146.71875 159.9375 C 146.632812 160.078125 146.722656 160.066406 146.976562 159.910156 C 147.675781 159.472656 147.851562 159.972656 147.25 160.707031 C 146.875 161.167969 146.847656 161.246094 147.148438 160.988281 C 147.925781 160.316406 147.5625 161 145.949219 163.234375 C 144.109375 165.789062 143.730469 166.460938 143.421875 167.742188 C 143.09375 169.085938 142.042969 171.296875 141.65625 171.441406 C 141.359375 171.554688 141.351562 171.53125 141.578125 171.238281 C 141.785156 170.972656 141.75 170.980469 141.40625 171.273438 C 141.042969 171.585938 140.921875 171.605469 140.59375 171.398438 C 140.382812 171.269531 140.265625 171.25 140.335938 171.359375 C 140.402344 171.472656 140.414062 171.5625 140.359375 171.5625 C 139.460938 171.5625 139.625 169.648438 140.734375 167.1875 C 141.515625 165.445312 141.976562 162.511719 141.421875 162.789062 C 139.707031 163.652344 138.1875 163.957031 137.90625 163.5 C 137.261719 162.453125 134.875 164.515625 133.457031 167.34375 C 132.695312 168.863281 130.863281 171.5625 130.59375 171.5625 C 130.558594 171.5625 130.375 171.617188 130.1875 171.6875 C 129.914062 171.785156 129.9375 171.703125 130.3125 171.273438 L 130.78125 170.738281 L 130.195312 171.199219 C 129.875 171.449219 129.648438 171.71875 129.691406 171.796875 C 129.867188 172.105469 129.441406 171.914062 129.195312 171.574219 C 129.050781 171.371094 128.863281 171.25 128.785156 171.300781 C 127.972656 171.800781 128.53125 169.636719 129.863281 167.128906 C 131.050781 164.894531 131.074219 164.714844 130.25 164.371094 C 129.859375 164.207031 129.535156 163.890625 129.382812 163.523438 C 129.078125 162.78125 128.835938 162.789062 127.734375 163.570312 C 124.9375 165.5625 122.78125 165.917969 121.394531 164.613281 L 120.949219 164.195312 L 119.769531 164.726562 C 117.445312 165.78125 115.460938 165.476562 114.828125 163.964844 C 114.457031 163.074219 114.339844 163.125 113.429688 164.566406 C 110.714844 168.863281 108.253906 169.359375 106.644531 165.9375 C 105.902344 164.355469 105.941406 164.347656 104.527344 166.417969 C 100.160156 172.816406 97.222656 165.734375 100.425781 156.535156 C 101.449219 153.597656 103.570312 149.570312 103.917969 149.917969 C 103.964844 149.964844 104.15625 149.832031 104.34375 149.625 C 104.75 149.175781 104.972656 149.152344 105.125 149.539062 M 43.011719 150.75 C 42.996094 151.125 43.023438 151.140625 43.214844 150.878906 C 43.410156 150.613281 43.464844 150.609375 43.71875 150.863281 C 43.964844 151.105469 44.324219 151.117188 46.398438 150.9375 C 47.71875 150.824219 49.398438 150.773438 50.132812 150.824219 C 51.140625 150.894531 51.308594 150.875 50.8125 150.75 C 50.269531 150.609375 50.335938 150.597656 51.183594 150.679688 C 52.941406 150.84375 53.1875 151.484375 51.503906 151.523438 C 50.703125 151.539062 50.632812 151.566406 51.09375 151.671875 C 51.511719 151.769531 51.222656 151.835938 49.96875 151.941406 C 43.246094 152.503906 42.792969 152.742188 41.730469 156.222656 C 40.648438 159.777344 40.710938 159.941406 43.085938 159.554688 C 44.398438 159.34375 44.945312 159.59375 44.757812 160.320312 C 44.703125 160.523438 44.738281 160.640625 44.832031 160.582031 C 44.921875 160.523438 45 160.566406 45 160.671875 C 45 161.003906 44.027344 161.386719 42.328125 161.726562 C 40.207031 162.148438 40.25 162.105469 39.390625 164.625 C 38.984375 165.8125 38.636719 166.613281 38.617188 166.40625 C 38.597656 166.199219 38.480469 166.453125 38.359375 166.96875 C 38.1875 167.695312 38.054688 167.90625 37.769531 167.90625 C 37.289062 167.90625 37.261719 167.316406 37.636719 164.855469 C 37.859375 163.40625 37.878906 162.816406 37.726562 162.476562 C 37.542969 162.078125 37.570312 162.015625 37.929688 161.945312 C 38.273438 161.878906 38.257812 161.859375 37.828125 161.839844 C 37.34375 161.8125 37.039062 161.25 37.511719 161.25 C 37.621094 161.25 37.664062 161.175781 37.609375 161.089844 C 37.554688 161 37.753906 160.710938 38.046875 160.449219 C 38.34375 160.1875 38.671875 159.6875 38.777344 159.34375 C 40.71875 152.992188 40.742188 153.199219 38.089844 153.359375 C 37.015625 153.425781 37.109375 152.984375 38.226562 152.710938 C 38.660156 152.605469 38.949219 152.449219 38.867188 152.367188 C 38.785156 152.285156 38.972656 152.273438 39.28125 152.34375 C 39.640625 152.421875 39.757812 152.40625 39.601562 152.296875 C 39.429688 152.175781 39.578125 152.0625 40.113281 151.898438 C 40.527344 151.777344 41.257812 151.335938 41.734375 150.921875 C 42.667969 150.113281 43.042969 150.0625 43.011719 150.75 M 48.046875 151.066406 C 48.226562 151.113281 48.523438 151.113281 48.703125 151.066406 C 48.882812 151.019531 48.734375 150.980469 48.375 150.980469 C 48.015625 150.980469 47.867188 151.019531 48.046875 151.066406 M 103.492188 152.269531 C 103.273438 152.691406 103.132812 153.070312 103.171875 153.109375 C 103.210938 153.148438 103.425781 152.800781 103.648438 152.339844 C 104.160156 151.289062 104.023438 151.226562 103.492188 152.269531 M 48.421875 151.816406 C 48.601562 151.863281 48.898438 151.863281 49.078125 151.816406 C 49.257812 151.769531 49.109375 151.730469 48.75 151.730469 C 48.390625 151.730469 48.242188 151.769531 48.421875 151.816406 M 114.421875 153.28125 C 114.425781 153.695312 114.460938 153.839844 114.507812 153.605469 C 114.550781 153.375 114.550781 153.035156 114.503906 152.855469 C 114.457031 152.679688 114.421875 152.867188 114.421875 153.28125 M 115.171875 154.40625 C 115.175781 154.820312 115.214844 154.964844 115.257812 154.730469 C 115.300781 154.5 115.300781 154.160156 115.253906 153.980469 C 115.207031 153.804688 115.171875 153.992188 115.171875 154.40625 M 73.488281 158.765625 L 72.84375 159.46875 L 73.546875 158.824219 C 74.203125 158.222656 74.335938 158.0625 74.191406 158.0625 C 74.160156 158.0625 73.84375 158.378906 73.488281 158.765625 M 85.640625 158.632812 C 85.871094 158.722656 86.070312 158.949219 86.078125 159.132812 C 86.085938 159.339844 86.128906 159.378906 86.1875 159.226562 C 86.316406 158.910156 85.910156 158.433594 85.523438 158.449219 C 85.316406 158.457031 85.355469 158.515625 85.640625 158.632812 M 85.289062 160.164062 C 85.375 160.6875 85.402344 160.714844 85.460938 160.335938 C 85.5 160.09375 85.453125 159.816406 85.359375 159.722656 C 85.257812 159.617188 85.226562 159.792969 85.289062 160.164062 M 86.121094 160.59375 C 86.121094 161.210938 86.15625 161.441406 86.199219 161.105469 C 86.238281 160.769531 86.238281 160.261719 86.195312 159.980469 C 86.152344 159.699219 86.121094 159.976562 86.121094 160.59375 M 71.8125 160.59375 C 71.355469 161.058594 71.027344 161.4375 71.078125 161.4375 C 71.128906 161.4375 71.542969 161.058594 72 160.59375 C 72.457031 160.128906 72.785156 159.75 72.734375 159.75 C 72.683594 159.75 72.269531 160.128906 71.8125 160.59375 M 121.113281 161.578125 L 120.46875 162.28125 L 121.171875 161.636719 C 121.828125 161.035156 121.960938 160.875 121.816406 160.875 C 121.785156 160.875 121.46875 161.191406 121.113281 161.578125 M 137.046875 161.765625 L 136.59375 162.28125 L 137.15625 161.8125 C 137.464844 161.554688 137.753906 161.324219 137.796875 161.296875 C 137.839844 161.269531 137.792969 161.25 137.6875 161.25 C 137.585938 161.25 137.296875 161.480469 137.046875 161.765625 M 49.960938 162.609375 L 49.21875 163.40625 L 50.015625 162.664062 C 50.757812 161.976562 50.898438 161.8125 50.757812 161.8125 C 50.726562 161.8125 50.367188 162.171875 49.960938 162.609375 M 134.707031 162.796875 L 134.15625 163.40625 L 134.765625 162.855469 C 135.101562 162.550781 135.375 162.277344 135.375 162.246094 C 135.375 162.101562 135.21875 162.230469 134.707031 162.796875 M 121.730469 162.9375 C 121.730469 163.296875 121.769531 163.445312 121.816406 163.265625 C 121.863281 163.085938 121.863281 162.789062 121.816406 162.609375 C 121.769531 162.429688 121.730469 162.578125 121.730469 162.9375 M 137.976562 162.796875 C 138.117188 162.976562 138.414062 163.113281 138.632812 163.101562 C 139.011719 163.082031 139.011719 163.078125 138.65625 162.988281 C 138.449219 162.9375 138.15625 162.800781 138 162.683594 C 137.753906 162.496094 137.753906 162.511719 137.976562 162.796875 M 46.355469 163.5 C 46.355469 163.859375 46.394531 164.007812 46.441406 163.828125 C 46.488281 163.648438 46.488281 163.351562 46.441406 163.171875 C 46.394531 162.992188 46.355469 163.140625 46.355469 163.5 M 107.679688 163.78125 C 107.679688 164.296875 107.714844 164.484375 107.757812 164.199219 C 107.800781 163.914062 107.800781 163.492188 107.757812 163.261719 C 107.710938 163.03125 107.675781 163.265625 107.679688 163.78125 M 134.894531 163.734375 L 134.34375 164.34375 L 134.953125 163.792969 C 135.289062 163.488281 135.5625 163.214844 135.5625 163.183594 C 135.5625 163.039062 135.40625 163.167969 134.894531 163.734375 M 66.421875 164.941406 C 66.601562 164.988281 66.898438 164.988281 67.078125 164.941406 C 67.257812 164.894531 67.109375 164.855469 66.75 164.855469 C 66.390625 164.855469 66.242188 164.894531 66.421875 164.941406 M 116.769531 164.945312 C 117 164.988281 117.339844 164.988281 117.519531 164.941406 C 117.695312 164.894531 117.507812 164.859375 117.09375 164.859375 C 116.679688 164.863281 116.535156 164.898438 116.769531 164.945312 M 123.046875 164.941406 C 123.226562 164.988281 123.523438 164.988281 123.703125 164.941406 C 123.882812 164.894531 123.734375 164.855469 123.375 164.855469 C 123.015625 164.855469 122.867188 164.894531 123.046875 164.941406 M 59.492188 166.21875 C 59.492188 166.734375 59.527344 166.921875 59.570312 166.636719 C 59.613281 166.351562 59.613281 165.929688 59.570312 165.699219 C 59.523438 165.46875 59.488281 165.703125 59.492188 166.21875 M 102.457031 168.234375 L 101.90625 168.84375 L 102.515625 168.292969 C 102.851562 167.988281 103.125 167.714844 103.125 167.683594 C 103.125 167.539062 102.96875 167.667969 102.457031 168.234375 "/>
</g>
</svg>
