<?xml version="1.0" encoding="UTF-8"?>
<svg xmlns="http://www.w3.org/2000/svg" xmlns:xlink="http://www.w3.org/1999/xlink" width="512px" height="512px" viewBox="0 0 512 512" version="1.1">
<g id="surface1">
<path style=" stroke:none;fill-rule:nonzero;fill:rgb(48.235294%,85.098039%,32.54902%);fill-opacity:1;" d="M 0 256 L 0 512 L 512 512 L 512 0 L 0 0 Z M 328.550781 42.074219 C 339.261719 45.710938 340.5 49.679688 340.5 80.347656 L 340.5 103.484375 L 397.875 103.617188 C 453.863281 103.746094 455.285156 103.773438 456.695312 104.726562 C 459.695312 106.761719 459.5 97.074219 459.5 243.25 C 459.5 387.644531 459.648438 379.402344 457.015625 381.75 C 455.898438 382.746094 455.1875 382.75 257.234375 382.75 L 58.574219 382.75 L 57.164062 381.703125 C 54.417969 379.667969 54.558594 387.105469 54.53125 243.5 C 54.503906 100.570312 54.382812 106.863281 57.144531 104.894531 L 58.75 103.75 L 173.5 103.484375 L 173.503906 81.367188 C 173.507812 50.640625 174.234375 47.867188 183.566406 42.875 L 186.140625 41.5 L 256.492188 41.5 C 308.316406 41.5 327.296875 41.652344 328.550781 42.074219 M 188.742188 53.765625 C 185.683594 55.28125 185.765625 54.605469 185.605469 79.625 L 185.460938 102.5 L 328.5 102.5 L 328.5 56.515625 L 327.042969 54.882812 L 325.582031 53.25 L 257.917969 53.132812 C 198.710938 53.03125 190.0625 53.109375 188.742188 53.765625 M 244.5 157 L 244.5 198.5 L 269.5 198.5 L 269.5 115.5 L 244.5 115.5 Z M 415.5 211.792969 C 398.585938 217.148438 364.722656 227.835938 340.25 235.539062 C 315.773438 243.246094 295.019531 249.78125 294.125 250.0625 L 292.5 250.578125 L 292.5 266.949219 C 292.5 288.175781 291.507812 291.316406 283.855469 294.234375 L 281.5 295.136719 L 281.5 371 L 447.5 371 L 447.5 286.5 C 447.5 219.21875 447.371094 202.003906 446.875 202.027344 C 446.53125 202.042969 432.414062 206.4375 415.5 211.792969 M 66.5 288 L 66.5 371 L 232.5 371 L 232.5 295.039062 L 230.496094 294.441406 C 227.910156 293.664062 224.855469 291.03125 223.121094 288.082031 L 221.75 285.75 L 221.601562 268.496094 L 221.453125 251.246094 L 174.601562 237.160156 C 78.363281 208.222656 67.582031 205 67.046875 205 C 66.652344 205 66.5 228.164062 66.5 288 M 233.832031 210.832031 C 233.015625 211.652344 233.464844 282.878906 234.292969 283.195312 C 234.726562 283.363281 238.652344 283.5 243.015625 283.5 L 250.953125 283.5 L 251.101562 270.535156 C 251.242188 258.28125 251.308594 257.492188 252.296875 256.160156 C 254.457031 253.253906 258.980469 253.070312 261.539062 255.789062 C 262.75 257.078125 262.75 257.085938 262.898438 270.289062 L 263.046875 283.5 L 270.980469 283.5 C 275.347656 283.5 279.273438 283.363281 279.710938 283.195312 C 280.417969 282.921875 280.5 279.242188 280.5 246.695312 L 280.5 210.5 L 257.332031 210.5 C 244.589844 210.5 234.015625 210.648438 233.832031 210.832031 M 244.5 333.25 L 244.5 371 L 269.5 371 L 269.5 295.5 L 244.5 295.5 Z M 232.339844 395.683594 C 233.332031 396.652344 233.457031 397.425781 233.742188 404.25 C 234.195312 415.195312 236.613281 422.5 239.777344 422.5 C 240.175781 422.5 240.5 422.699219 240.5 422.945312 C 240.5 423.191406 240.847656 423.527344 241.277344 423.691406 C 241.796875 423.890625 241.933594 423.785156 241.695312 423.367188 C 241.5 423.027344 241.914062 423.273438 242.613281 423.910156 C 243.980469 425.15625 244.78125 427.789062 244.066406 428.695312 C 243.828125 429 243.355469 430.109375 243.015625 431.15625 C 241.910156 434.59375 238.699219 437.257812 229.75 442.179688 C 216.480469 449.476562 216.734375 449.414062 206.605469 447.863281 C 200.410156 446.914062 191.734375 446.683594 193 447.5 C 193.570312 447.867188 193.359375 447.984375 192.125 447.992188 C 191.230469 447.996094 190.5 447.773438 190.5 447.5 C 190.5 447.226562 189.769531 447.003906 188.875 447.003906 C 186.265625 447.015625 183.496094 447.589844 183.789062 448.0625 C 183.9375 448.304688 183.59375 448.5 183.03125 448.5 C 182.460938 448.5 182 448.296875 182 448.046875 C 182 447.796875 181.550781 447.710938 181.007812 447.855469 C 180.457031 447.996094 180.109375 448.273438 180.230469 448.46875 C 180.53125 448.953125 175.664062 450.160156 175.019531 449.761719 C 174.734375 449.585938 174.5 449.703125 174.5 450.023438 C 174.5 450.34375 174.152344 450.472656 173.722656 450.308594 C 173.238281 450.121094 173.074219 450.214844 173.285156 450.558594 C 173.515625 450.929688 173.261719 450.992188 172.5 450.75 C 171.792969 450.527344 171.492188 450.578125 171.683594 450.894531 C 171.855469 451.171875 171.496094 451.382812 170.871094 451.371094 C 170.253906 451.359375 168.167969 451.632812 166.234375 451.980469 C 162.539062 452.640625 162.742188 452.671875 154.585938 450.308594 C 153.394531 449.964844 152.246094 449.398438 152.03125 449.046875 C 151.8125 448.699219 151.496094 448.433594 151.320312 448.457031 C 150.207031 448.605469 149.476562 448.441406 149.695312 448.089844 C 149.832031 447.867188 149.226562 447.769531 148.347656 447.875 C 147.429688 447.988281 146.996094 447.894531 147.328125 447.660156 C 147.839844 447.296875 143.042969 447.148438 141.75 447.492188 C 137.265625 448.675781 128.253906 446.890625 121.433594 443.46875 C 116.386719 440.933594 114.074219 440.613281 110.75 441.996094 C 108.675781 442.855469 107.738281 443.15625 107.375 443.078125 C 107.167969 443.035156 107 443.335938 107 443.75 C 107 444.164062 106.761719 444.5 106.472656 444.5 C 106.183594 444.5 105.640625 445.234375 105.265625 446.136719 C 102.792969 452.046875 97.378906 450.648438 97.199219 444.046875 C 97.148438 442.136719 96.964844 440.347656 96.792969 440.070312 C 96.625 439.796875 96.714844 439.425781 97 439.25 C 97.285156 439.074219 97.386719 438.71875 97.222656 438.457031 C 97.0625 438.195312 96.664062 438.144531 96.339844 438.335938 C 95.945312 438.574219 95.960938 438.429688 96.386719 437.90625 C 96.863281 437.316406 96.886719 436.773438 96.488281 435.71875 C 95.625 433.449219 96.042969 428.609375 97.5625 423.25 C 99.933594 414.882812 100.132812 413.246094 99.019531 411.410156 C 97.277344 408.550781 98.46875 405.433594 101.914062 403.832031 C 103.199219 403.234375 105.039062 402.183594 106 401.496094 C 111.863281 397.308594 112.132812 397.234375 118.859375 397.984375 C 122.101562 398.34375 127.074219 398.714844 129.917969 398.808594 C 132.757812 398.902344 135.910156 399.082031 136.917969 399.207031 C 137.925781 399.328125 138.996094 399.445312 139.296875 399.464844 C 141.664062 399.617188 144.035156 406.878906 141.773438 407.0625 C 141.347656 407.097656 140.773438 407.179688 140.5 407.25 C 140.226562 407.320312 139.660156 407.402344 139.25 407.4375 C 138.21875 407.523438 138.304688 409.492188 139.375 410.304688 C 140.585938 411.222656 141.027344 411.160156 140.632812 410.125 C 140.417969 409.566406 140.792969 409.746094 141.671875 410.625 C 142.425781 411.382812 143.316406 411.996094 143.648438 411.992188 C 144.09375 411.988281 144.101562 411.890625 143.671875 411.617188 C 143.355469 411.414062 144.507812 411.21875 146.234375 411.183594 C 148.734375 411.132812 149.847656 410.828125 151.714844 409.683594 C 153.003906 408.894531 154.609375 407.957031 155.28125 407.597656 C 155.953125 407.238281 156.5 406.648438 156.5 406.285156 C 156.5 405.921875 156.894531 405.3125 157.375 404.9375 C 158.136719 404.339844 158.1875 404.347656 157.75 405.023438 C 157.472656 405.449219 157.632812 405.382812 158.097656 404.875 C 158.5625 404.371094 159.070312 403.964844 159.222656 403.976562 C 160.289062 404.0625 160.515625 403.921875 160.199219 403.375 C 160 403.03125 160.015625 402.910156 160.234375 403.105469 C 160.449219 403.300781 161.265625 403.128906 162.050781 402.722656 C 167.441406 399.9375 173.894531 398.769531 176.371094 400.132812 C 176.988281 400.472656 178.902344 401.5 180.621094 402.417969 C 182.34375 403.335938 184.59375 404.75 185.625 405.566406 C 186.65625 406.378906 187.5 406.796875 187.5 406.488281 C 187.5 405.742188 192.453125 409.578125 192.480469 410.34375 C 192.527344 411.707031 198.980469 414.207031 202.453125 414.207031 C 205.894531 414.207031 209.890625 412.621094 210.402344 411.054688 C 210.5625 410.574219 210.417969 410.492188 209.941406 410.785156 C 209.558594 411.019531 209.8125 410.519531 210.5 409.671875 C 211.1875 408.824219 211.902344 408.214844 212.089844 408.324219 C 212.277344 408.429688 213.433594 407.207031 214.664062 405.613281 C 217.007812 402.566406 220.675781 399 221.464844 399 C 221.71875 399 222.789062 398.183594 223.839844 397.183594 C 227.277344 393.914062 230.03125 393.429688 232.339844 395.683594 M 282.273438 398.667969 C 282.433594 399.300781 282.445312 401.074219 282.296875 402.613281 C 281.695312 408.953125 290.542969 412.441406 298.347656 408.941406 C 299.5 408.421875 300.65625 408 300.917969 408 C 301.179688 408 301.539062 407.417969 301.714844 406.707031 C 302.949219 401.796875 308.703125 401.722656 310.714844 406.589844 C 311.675781 408.917969 313.246094 410.386719 315.089844 410.679688 C 315.734375 410.785156 316.199219 411.175781 316.132812 411.558594 C 315.90625 412.894531 325.160156 415.492188 327.5 414.75 C 329.308594 414.175781 339.960938 414.140625 340.238281 414.710938 C 340.414062 415.070312 340.597656 415.035156 340.796875 414.609375 C 341 414.175781 341.675781 414.070312 342.921875 414.273438 C 344.351562 414.507812 344.585938 414.453125 344 414.007812 C 343.410156 413.5625 343.597656 413.507812 344.875 413.761719 C 345.769531 413.933594 346.503906 413.894531 346.503906 413.664062 C 346.515625 412.558594 355.277344 412.96875 360.25 414.308594 C 364.578125 415.476562 366.5625 415.699219 375.023438 415.953125 C 385.734375 416.277344 385.8125 416.300781 389.476562 419.820312 C 390.425781 420.734375 392.265625 422.207031 393.570312 423.097656 C 396.902344 425.371094 396.941406 425.871094 394.546875 435.117188 C 392.425781 443.308594 384.269531 456.761719 380.097656 458.957031 C 376.761719 460.707031 373.109375 460.503906 371.214844 458.464844 C 368.328125 455.359375 366.214844 453.5 365.761719 453.671875 C 363.46875 454.527344 363.011719 454.546875 363.3125 453.765625 C 363.578125 453.074219 363.445312 453.046875 362.324219 453.554688 C 361.613281 453.878906 361.121094 454.292969 361.230469 454.46875 C 361.339844 454.648438 360.96875 454.828125 360.402344 454.871094 C 359.832031 454.914062 358.894531 455.382812 358.308594 455.910156 C 353.910156 459.914062 347.136719 461.976562 343.246094 460.496094 C 341.582031 459.867188 341.222656 459.476562 338.636719 455.5 C 337.472656 453.710938 336.335938 452.027344 336.109375 451.75 C 335.878906 451.476562 335.660156 451.058594 335.625 450.824219 C 335.335938 449.089844 330.90625 447.972656 322.488281 447.511719 C 313.871094 447.046875 307.457031 447.316406 310 448.042969 C 311.289062 448.414062 310.691406 448.511719 305.75 448.761719 C 303.242188 448.886719 302.929688 448.980469 303.246094 449.492188 C 303.414062 449.765625 303.242188 449.867188 302.863281 449.722656 C 302.484375 449.578125 301.515625 449.714844 300.710938 450.027344 C 297.042969 451.453125 293.582031 452 288.101562 452.023438 C 282.945312 452.039062 280.640625 452.242188 272.964844 453.332031 C 265.863281 454.34375 260.597656 448.046875 259.496094 437.226562 C 258.523438 427.648438 261.179688 417.519531 266.882812 409.074219 C 268.0625 407.324219 269.339844 405.300781 269.722656 404.570312 C 270.886719 402.367188 276.742188 396.605469 278.039062 396.394531 C 279.734375 396.121094 281.929688 397.300781 282.273438 398.667969 M 279.449219 398.457031 C 279.882812 398.730469 280.011719 399.25 279.792969 399.824219 C 279.519531 400.539062 279.578125 400.617188 280.039062 400.160156 C 280.742188 399.457031 280.304688 397.996094 279.390625 398.007812 C 278.910156 398.011719 278.925781 398.128906 279.449219 398.457031 M 171.949219 402.859375 C 171.304688 403.679688 171.324219 403.691406 172.164062 403.03125 C 172.957031 402.410156 173.140625 402.410156 173.574219 403.03125 C 174.011719 403.65625 174.050781 403.65625 173.882812 403.03125 C 173.585938 401.941406 172.730469 401.863281 171.949219 402.859375 M 132.382812 404.351562 C 133.003906 404.472656 133.902344 404.46875 134.378906 404.34375 C 134.859375 404.21875 134.351562 404.121094 133.25 404.125 C 132.148438 404.132812 131.757812 404.234375 132.382812 404.351562 M 185.625 410.84375 C 186.105469 410.972656 186.894531 410.972656 187.375 410.84375 C 187.855469 410.71875 187.460938 410.617188 186.5 410.617188 C 185.539062 410.617188 185.144531 410.71875 185.625 410.84375 M 127.671875 419.273438 C 127.507812 419.695312 127.515625 420.183594 127.6875 420.355469 C 127.859375 420.527344 128 420.265625 128 419.773438 C 128 419.097656 128.296875 418.941406 129.234375 419.121094 C 129.914062 419.25 130.351562 419.164062 130.207031 418.925781 C 129.761719 418.210938 127.988281 418.453125 127.671875 419.273438 M 374.71875 429.125 L 373.25 430.75 L 374.875 429.28125 C 375.769531 428.472656 376.5 427.742188 376.5 427.65625 C 376.5 427.269531 376.085938 427.609375 374.71875 429.125 M 376.21875 430.125 L 374.75 431.75 L 376.375 430.28125 C 377.269531 429.472656 378 428.742188 378 428.65625 C 378 428.269531 377.585938 428.609375 376.21875 430.125 "/>
<path style=" stroke:none;fill-rule:nonzero;fill:rgb(1.568627%,1.568627%,1.568627%);fill-opacity:1;" d="M 186 42.074219 C 183.308594 42.804688 178.988281 46.042969 177.160156 48.699219 C 174.042969 53.222656 174 53.664062 174 80.089844 L 174 104 L 116.625 104 C 52.714844 104.003906 56.816406 103.785156 55.488281 107.28125 C 55.175781 108.105469 55 157.167969 55 243.832031 L 55 379.101562 L 58.398438 382.5 L 256.675781 382.5 C 409.335938 382.5 455.253906 382.363281 456.265625 381.902344 C 459.195312 380.566406 459 390.523438 459 242.976562 L 459 107.398438 L 455.601562 104 L 340.035156 104 L 339.890625 78.875 L 339.75 53.75 L 338.03125 50.582031 C 336.226562 47.25 333.738281 44.878906 330 42.925781 L 327.75 41.75 L 257.75 41.671875 C 214.675781 41.625 187.078125 41.777344 186 42.074219 M 326.292969 53.824219 C 329 55.597656 329 55.59375 329 80.226562 L 329 103 L 185.5 103 L 185.5 56.402344 L 187.199219 54.699219 L 188.898438 53 L 256.96875 53 C 319.355469 53 325.140625 53.070312 326.292969 53.824219 M 269.5 157 L 269.5 198.5 L 244.5 198.5 L 244.5 115.5 L 269.5 115.5 Z M 447.5 286.5 L 447.5 371.503906 L 364.375 371.375 L 281.25 371.25 L 281.25 294.890625 L 283.851562 293.917969 C 291.160156 291.191406 292 288.453125 292 267.359375 L 292 250.582031 L 296.625 249.066406 C 299.167969 248.230469 319.136719 241.917969 341 235.039062 C 362.863281 228.15625 395.601562 217.8125 413.75 212.050781 C 431.898438 206.292969 446.917969 201.558594 447.125 201.539062 C 447.332031 201.519531 447.5 239.75 447.5 286.5 M 126.75 222.511719 C 180.5 238.636719 203.871094 245.667969 216.585938 249.542969 L 221.417969 251.019531 L 221.59375 267.882812 C 221.820312 289.34375 222.753906 291.726562 232.128906 294.691406 C 232.957031 294.957031 233 297.109375 232.878906 333.109375 L 232.75 371.25 L 149.625 371.375 L 66.5 371.503906 L 66.5 287.96875 C 66.5 208.640625 66.542969 204.445312 67.375 204.699219 C 67.855469 204.84375 94.574219 212.859375 126.75 222.511719 M 280.398438 210.601562 C 281.269531 211.46875 281.269531 282.03125 280.398438 282.902344 C 279.980469 283.320312 277.273438 283.5 271.429688 283.5 L 263.0625 283.5 L 262.75 257.421875 L 260.816406 255.652344 C 258.289062 253.332031 255.128906 253.457031 252.890625 255.960938 L 251.5 257.515625 L 251.5 283.5 L 242.765625 283.5 C 234.695312 283.5 233.996094 283.429688 233.527344 282.546875 C 232.824219 281.242188 232.828125 212.257812 233.527344 210.949219 C 234.15625 209.773438 279.234375 209.433594 280.398438 210.601562 M 269.75 333.25 L 269.75 371.25 L 244.5 371.515625 L 244.5 294.980469 L 257.125 295.117188 L 269.75 295.25 L 269.75 333.25 "/>
<path style=" stroke:none;fill-rule:nonzero;fill:rgb(90.196078%,91.372549%,89.803922%);fill-opacity:1;" d="M 228.316406 398.015625 C 225.960938 400.808594 221.558594 409.195312 219.003906 415.75 C 217.609375 419.324219 216.136719 422.847656 215.734375 423.578125 C 215.332031 424.308594 215 425.347656 215 425.886719 C 215 427.144531 206.421875 433.953125 202.183594 436.054688 C 194.207031 440.019531 190.363281 437.355469 193.707031 430.179688 C 196.792969 423.550781 203.292969 420.59375 201.03125 426.851562 C 200.316406 428.828125 200.667969 429.546875 201.800781 428.414062 C 203.144531 427.070312 203.289062 423.789062 202.058594 422.558594 C 199.964844 420.46875 198.949219 421.027344 191.863281 428.167969 C 182.328125 437.773438 176.785156 440.304688 175.824219 435.492188 C 175.410156 433.429688 175.578125 433.207031 178.550781 431.929688 C 184.019531 429.578125 187.347656 422 182.914062 422 C 180.238281 422 177.691406 424.828125 167.152344 439.5 C 163.105469 445.132812 161.867188 446.296875 161.011719 445.261719 C 159.59375 443.554688 162.050781 432.203125 166.488281 419.9375 C 168.785156 413.589844 167.863281 414.105469 178.710938 413.113281 C 185.191406 412.523438 188.234375 412.050781 188.375 411.625 C 188.640625 410.832031 185.761719 410.808594 178.246094 411.542969 C 175.191406 411.839844 172.097656 412.007812 171.375 411.917969 L 170.054688 411.75 L 171.777344 407.855469 C 175.257812 399.984375 173.03125 400.402344 169.054688 408.367188 C 166.78125 412.917969 167.234375 412.644531 160.523438 413.480469 C 156.453125 413.988281 154.882812 414.558594 155.882812 415.175781 C 156.136719 415.335938 158.410156 415.210938 160.925781 414.902344 C 166.679688 414.195312 166.503906 413.847656 163.996094 420.957031 C 162.027344 426.539062 161.675781 427.15625 159.0625 429.644531 C 153.34375 435.085938 152.351562 435.078125 151.75 429.570312 C 151.320312 425.652344 150.769531 424.5 149.316406 424.5 C 147.890625 424.5 143.292969 429.21875 141.144531 432.886719 C 138.828125 436.839844 139.277344 434.148438 142.179688 426.714844 C 143.945312 422.195312 144.730469 419.574219 144.414062 419.25 C 143.777344 418.585938 142.765625 419.988281 141.550781 423.21875 C 140.625 425.6875 139.121094 427.636719 133.5 433.65625 C 126.332031 441.335938 123.722656 438.730469 127.523438 427.6875 C 128.066406 426.105469 128.324219 424.625 128.09375 424.394531 C 127.296875 423.597656 126 425.84375 125.003906 429.742188 C 121.980469 441.558594 126.992188 443.453125 135.828125 433.828125 C 137.382812 432.132812 138.496094 431.1875 138.304688 431.722656 C 135 440.957031 136.308594 445.847656 140.070312 438.339844 C 142.714844 433.058594 148.4375 425.769531 149.273438 426.609375 C 149.433594 426.765625 149.757812 428.285156 150 429.984375 C 150.878906 436.226562 153.246094 437.046875 158.109375 432.792969 C 161.246094 430.054688 161.070312 429.820312 159.949219 435.25 C 156.855469 450.199219 160.261719 451.765625 169.367188 439.582031 L 173.707031 433.769531 L 174.109375 435.757812 C 175.1875 441.101562 180.019531 440.652344 187.761719 434.488281 L 190.808594 432.066406 L 190.808594 434.601562 C 190.808594 442.425781 200.636719 440.941406 212.125 431.382812 C 213.429688 430.296875 214.5 429.652344 214.5 429.953125 C 214.5 430.253906 214.140625 432.582031 213.699219 435.125 C 211.609375 447.226562 213.976562 447.9375 219.761719 436.945312 C 225.9375 425.210938 228 423.355469 228 429.53125 C 228 432.972656 228.933594 435 230.519531 435 C 232.414062 435 240.246094 429.589844 240.777344 427.917969 C 241.324219 426.195312 240.613281 426.3125 238.144531 428.355469 C 230.425781 434.738281 229.679688 434.582031 229.375 426.503906 C 229.117188 419.730469 224.304688 423.917969 218.074219 436.335938 C 215.25 441.972656 214.761719 442.117188 215.171875 437.203125 C 215.839844 429.203125 218.085938 421.816406 221.585938 416.117188 C 228.292969 405.199219 233.058594 392.375 228.316406 398.015625 M 277.273438 400.265625 C 268.378906 411.925781 262.886719 437.816406 267.371094 446.949219 C 270.5625 453.441406 274.207031 449.875 282.078125 432.5625 C 287.089844 421.535156 287.488281 421.113281 286.289062 428.082031 C 282.21875 451.773438 295.503906 454.304688 303.191406 431.300781 C 306.496094 421.417969 308.386719 405.125 306.175781 405.601562 C 305.664062 405.710938 305.417969 406.945312 305.257812 410.25 C 304.273438 430.3125 294.210938 451.316406 289.050781 444.070312 C 286.453125 440.421875 286.515625 434.578125 289.292969 422.207031 C 290.609375 416.320312 290.511719 415.003906 288.800781 415.660156 C 287.890625 416.011719 286.382812 418.9375 280.691406 431.398438 C 273.273438 447.632812 271.019531 450.355469 268.6875 445.902344 C 264.765625 438.417969 270.71875 412.011719 278.691406 401.527344 C 279.410156 400.582031 280 399.511719 280 399.152344 C 280 397.933594 278.621094 398.492188 277.273438 400.265625 M 112.710938 402.957031 C 111.828125 405.160156 112.371094 404.902344 104.332031 406.929688 C 102.175781 407.476562 100.28125 408.050781 100.121094 408.210938 C 99.351562 408.984375 100.734375 408.898438 105.144531 407.894531 C 111.148438 406.53125 110.980469 406.265625 108.582031 413.335938 C 107.480469 416.589844 106.085938 421.273438 105.488281 423.75 C 104.277344 428.777344 103.976562 429.242188 101.535156 429.859375 C 99.144531 430.464844 98.9375 431.5 101.207031 431.5 C 103.449219 431.5 103.449219 431.488281 101.472656 440.035156 C 99.996094 446.425781 99.875 448.828125 101.085938 447.617188 C 101.386719 447.3125 102.484375 443.539062 103.519531 439.230469 C 105.773438 429.863281 104.917969 430.816406 112.25 429.515625 C 115.550781 428.933594 118.558594 428.148438 118.933594 427.773438 C 119.859375 426.855469 119.207031 425.851562 118.074219 426.457031 C 115.214844 427.992188 106.5 428.867188 106.503906 427.625 C 106.527344 423.542969 112.597656 406.601562 114.160156 406.269531 C 116.566406 405.753906 128.59375 404.4375 133.960938 404.105469 C 137.816406 403.867188 139.734375 403.546875 139.875 403.125 C 140.160156 402.273438 136.539062 402.316406 127.75 403.269531 C 123.898438 403.6875 119.324219 404.167969 117.582031 404.339844 L 114.414062 404.652344 L 114.582031 403 C 114.828125 400.570312 113.675781 400.542969 112.710938 402.957031 M 352.75 419.6875 C 349.242188 421.34375 344.5 424.996094 344.5 426.046875 C 344.5 428.179688 331.734375 438 328.960938 438 C 325.957031 438 326.019531 433.644531 329.042969 432.1875 C 334.246094 429.6875 337.640625 424.039062 334.953125 422.351562 C 333.3125 421.324219 331.402344 422.585938 325.355469 428.6875 C 317.023438 437.089844 311.152344 440.03125 310.210938 436.265625 C 309.652344 434.050781 310.152344 432.835938 311.796875 432.410156 C 316.9375 431.085938 321.53125 422.570312 317.363281 422.089844 C 312.597656 421.542969 306.6875 431.261719 308.484375 436.703125 C 309.925781 441.066406 314.753906 440.269531 321.875 434.488281 L 325 431.957031 L 325 434.5 C 325 438.722656 327.921875 440.59375 331.851562 438.894531 C 335.96875 437.113281 346.503906 428.21875 345.816406 427.105469 C 345.144531 426.019531 354.320312 420.023438 355.515625 420.761719 C 356.488281 421.359375 352.816406 427.917969 348.933594 432.523438 C 346.449219 435.464844 346.492188 435.664062 349.515625 435.246094 C 352.597656 434.824219 353.5 435.433594 353.5 437.949219 C 353.5 439.847656 353.398438 440.019531 348.449219 446.554688 C 345.140625 450.925781 344.0625 452.894531 343.914062 454.839844 C 343.359375 462.132812 351.320312 453.5 354.71875 443.128906 C 355.457031 440.871094 356.347656 439.78125 361.160156 435.253906 C 367.480469 429.304688 367.382812 429.355469 367.59375 431.824219 C 367.960938 436.152344 370.847656 435.335938 376.933594 429.183594 C 379.507812 426.578125 381.722656 424.558594 381.859375 424.691406 C 382.4375 425.269531 379.914062 441.308594 378.980469 443 C 374.152344 451.761719 373.554688 453.328125 374.164062 455.65625 C 375.308594 460.019531 378.613281 455.714844 380.496094 447.398438 C 381.71875 442.011719 382.648438 440.480469 390.429688 431.015625 C 393.300781 427.519531 394.097656 426 393.0625 426 C 392.5 426 389.515625 429.261719 385.738281 434 C 382.105469 438.554688 382.066406 438.445312 383.4375 428 C 384.75 418.023438 384.46875 417.8125 378.886719 424.601562 C 373.367188 431.308594 369 434.300781 369 431.371094 C 369 429.972656 370.53125 424.914062 371.320312 423.710938 C 371.816406 422.957031 371.964844 422.265625 371.695312 421.996094 C 371.011719 421.3125 370.253906 422.011719 369.003906 424.480469 C 368.378906 425.707031 366.71875 427.730469 365.3125 428.976562 C 363.902344 430.222656 361.382812 432.535156 359.707031 434.121094 C 356.320312 437.328125 355.683594 437.550781 355.011719 435.777344 C 354.753906 435.101562 353.917969 434.15625 353.148438 433.679688 C 352.378906 433.195312 351.667969 432.746094 351.570312 432.679688 C 351.46875 432.609375 352.398438 431.023438 353.632812 429.152344 C 359.460938 420.3125 359.125 416.683594 352.75 419.6875 M 128 419.96875 C 128 421.285156 128.667969 421.605469 129.753906 420.808594 C 130.808594 420.039062 130.359375 419 128.96875 419 C 128.34375 419 128 419.34375 128 419.96875 M 183 425.089844 C 183 426.269531 178.839844 430.5 177.679688 430.5 C 176.695312 430.5 176.835938 429.738281 178.230469 427.53125 C 180.257812 424.320312 183 422.914062 183 425.089844 M 317.25 425.125 C 316.609375 427.402344 311 431.746094 311 429.964844 C 311 429.160156 313.898438 425.109375 314.886719 424.535156 C 316.492188 423.597656 317.601562 423.875 317.25 425.125 M 334 425 C 334 426.746094 328.617188 431.285156 327.671875 430.339844 C 327.328125 429.992188 328.863281 427.589844 330.6875 425.625 C 332.40625 423.773438 334 423.472656 334 425 M 349.804688 449.835938 C 348.105469 453.121094 346.042969 455.574219 346.019531 454.34375 C 345.996094 453.160156 346.722656 451.792969 348.933594 448.855469 C 351.09375 445.984375 351.539062 446.488281 349.804688 449.835938 M 378 449.992188 C 378 450.949219 376.382812 454.5 375.945312 454.5 C 375.328125 454.5 375.378906 454.097656 376.316406 451.640625 C 377.0625 449.695312 378 448.773438 378 449.992188 "/>
<path style=" stroke:none;fill-rule:nonzero;fill:rgb(34.117647%,54.509804%,25.098039%);fill-opacity:1;" d="M 328.730469 80 C 328.730469 92.789062 328.792969 98.019531 328.875 91.625 C 328.953125 85.230469 328.953125 74.769531 328.875 68.375 C 328.792969 61.980469 328.730469 67.210938 328.730469 80 M 340.230469 80.75 C 340.230469 93.675781 340.296875 99.035156 340.375 92.660156 C 340.453125 86.285156 340.453125 75.710938 340.375 69.160156 C 340.296875 62.609375 340.230469 67.824219 340.230469 80.75 M 459.246094 243.25 C 459.246094 317.226562 459.304688 347.414062 459.375 310.335938 C 459.445312 273.253906 459.445312 212.730469 459.375 175.835938 C 459.304688 138.9375 459.246094 169.273438 459.246094 243.25 M 280.738281 246.75 C 280.738281 266.550781 280.796875 274.578125 280.875 264.589844 C 280.949219 254.601562 280.949219 238.398438 280.875 228.589844 C 280.796875 218.777344 280.738281 226.949219 280.738281 246.75 M 233.226562 228.5 C 233.226562 237.988281 233.292969 241.867188 233.375 237.125 C 233.457031 232.382812 233.457031 224.617188 233.375 219.875 C 233.292969 215.132812 233.226562 219.011719 233.226562 228.5 M 233.226562 264.75 C 233.226562 274.375 233.292969 278.242188 233.375 273.34375 C 233.457031 268.445312 233.457031 260.566406 233.375 255.84375 C 233.292969 251.117188 233.226562 255.125 233.226562 264.75 M 292.222656 266.75 C 292.222656 275.824219 292.289062 279.609375 292.375 275.15625 C 292.457031 270.707031 292.457031 263.28125 292.375 258.65625 C 292.292969 254.03125 292.222656 257.675781 292.222656 266.75 M 251.21875 271 C 251.21875 278.011719 251.285156 280.878906 251.375 277.375 C 251.460938 273.867188 251.460938 268.132812 251.375 264.625 C 251.285156 261.117188 251.21875 263.988281 251.21875 271 M 232.382812 332.773438 L 232.511719 370.996094 L 149.382812 371.125 L 66.25 371.253906 L 149.5 371.253906 L 232.75 371.25 L 232.878906 333.277344 C 232.949219 312.394531 232.835938 295.136719 232.628906 294.929688 C 232.417969 294.71875 232.308594 311.75 232.382812 332.773438 M 281.230469 295.125 C 281.097656 295.46875 281.050781 312.738281 281.121094 333.5 L 281.25 371.25 L 364.25 371.253906 L 447.25 371.253906 L 364.367188 371.125 L 281.488281 370.996094 L 281.621094 332.75 C 281.691406 311.710938 281.6875 294.5 281.609375 294.5 C 281.53125 294.5 281.359375 294.78125 281.230469 295.125 M 269.621094 333.117188 L 269.5 370.980469 L 244.25 371.269531 L 256.890625 371.382812 C 266.628906 371.472656 269.585938 371.355469 269.769531 370.875 C 269.902344 370.53125 269.949219 353.375 269.875 332.75 L 269.742188 295.25 Z M 225.675781 399.601562 C 222.617188 403.765625 219.792969 409.027344 216.738281 416.25 C 213.339844 424.28125 212.402344 425.585938 207.351562 429.335938 C 198.226562 436.113281 194.257812 436.976562 196.566406 431.679688 C 197.90625 428.613281 197.738281 428.734375 198.957031 429.957031 C 202.21875 433.21875 206.589844 427.527344 204.269531 423.042969 C 202.402344 419.425781 197.949219 419.414062 193.847656 423.015625 C 191.476562 425.09375 188.664062 426.683594 188.34375 426.125 C 188.226562 425.917969 187.859375 424.910156 187.527344 423.882812 C 185.855469 418.691406 180.046875 418.628906 173.75 423.734375 C 171.261719 425.753906 169.5 426.394531 169.5 425.285156 C 169.5 424.851562 169.851562 424.5 170.285156 424.5 C 170.992188 424.5 170.992188 424.421875 170.300781 423.730469 C 169 422.429688 170.519531 417.355469 172.371094 416.8125 C 172.855469 416.671875 176.167969 415.964844 179.734375 415.242188 C 190.457031 413.066406 189.96875 412.585938 178 413.527344 C 169.347656 414.207031 169.152344 414.257812 168.316406 415.882812 C 165.523438 421.320312 161.027344 437.769531 161.011719 442.625 C 160.996094 446.660156 161.75 446.382812 165.804688 440.875 C 179.292969 422.546875 180.226562 421.5 183.125 421.5 C 188.007812 421.5 183.648438 430.867188 177.972656 432.566406 C 176.207031 433.097656 176 433.328125 176 434.765625 C 176 440.371094 183 437.144531 192.378906 427.222656 C 198.582031 420.65625 199.992188 419.945312 202.277344 422.230469 C 203.773438 423.730469 203.769531 426.003906 202.261719 428.304688 C 201.222656 429.890625 199.742188 429.941406 200.242188 428.375 C 201.914062 423.160156 200.46875 422.078125 196.949219 425.90625 C 189.058594 434.488281 192.441406 440.53125 202.316406 435.492188 C 207.210938 432.996094 215 426.859375 215 425.5 C 215 424.964844 215.445312 423.566406 215.992188 422.386719 C 216.539062 421.210938 217.898438 417.886719 219.019531 415 C 221.097656 409.640625 224.515625 402.933594 227.101562 399.125 C 229.167969 396.085938 227.960938 396.492188 225.675781 399.601562 M 228.792969 403.054688 C 227.742188 405.363281 225.75 409.273438 224.363281 411.75 C 219.394531 420.621094 218.578125 422.300781 217.566406 425.75 C 216.605469 429.027344 215.007812 437.671875 215 439.625 C 214.996094 441.425781 215.828125 440.335938 218.632812 434.859375 C 225.390625 421.664062 230 418.90625 230 428.0625 C 230 433.808594 232.410156 433.730469 237.960938 427.796875 C 239.566406 426.078125 239.1875 426.160156 235.691406 428.265625 C 232.359375 430.269531 231.5 429.933594 231.5 426.628906 C 231.5 423.511719 229.890625 421.5 227.402344 421.5 C 226.296875 421.5 222.5 423.464844 222.5 424.039062 C 222.5 424.234375 222.136719 424.53125 221.695312 424.703125 C 220.179688 425.285156 221.398438 421.578125 225.714844 412.5 C 230 403.480469 231.21875 400.40625 230.890625 399.425781 C 230.789062 399.113281 229.84375 400.746094 228.792969 403.054688 M 275.691406 400.941406 C 272.351562 405.070312 266.710938 419 265.183594 426.878906 C 262.996094 438.179688 265.324219 450.679688 269.574219 450.464844 C 269.945312 450.449219 269.761719 450.195312 269.160156 449.90625 C 261.988281 446.4375 266.480469 414.871094 276.058594 401.417969 C 277.386719 399.554688 277.105469 399.191406 275.691406 400.941406 M 111.25 402.5 C 110.460938 403.324219 108.671875 404.4375 107.28125 404.972656 C 104.378906 406.089844 104.796875 406.238281 108.601562 405.445312 C 111.710938 404.796875 111.875 404.675781 112.472656 402.589844 C 113.03125 400.644531 113.027344 400.644531 111.25 402.5 M 278.882812 401.875 C 272.539062 409.0625 266.246094 432.808594 268.175781 442.277344 C 269.972656 451.09375 272.398438 448.921875 280.484375 431.257812 C 282.996094 425.769531 285.800781 419.863281 286.71875 418.136719 C 287.636719 416.414062 288.203125 415 287.976562 415 C 286.519531 415 282.058594 423.039062 275.210938 438 C 271.351562 446.4375 270.316406 446.871094 269.421875 440.445312 C 268.230469 431.863281 272.925781 413.234375 278.808594 403.195312 C 280.15625 400.894531 280.183594 400.398438 278.882812 401.875 M 115 402.75 C 114.070312 404.484375 114.453125 404.644531 118 404 C 119.703125 403.691406 123.835938 403.140625 127.175781 402.773438 C 134.484375 401.976562 131.664062 401.796875 123.316406 402.53125 C 118.164062 402.980469 117.273438 402.949219 116.527344 402.273438 C 115.742188 401.566406 115.613281 401.605469 115 402.75 M 134.625 401.84375 C 135.105469 401.96875 135.894531 401.96875 136.375 401.84375 C 136.855469 401.71875 136.460938 401.617188 135.5 401.617188 C 134.535156 401.617188 134.144531 401.71875 134.625 401.84375 M 169.789062 404.046875 C 169.054688 404.917969 168.011719 406.5 167.46875 407.558594 C 166.234375 409.980469 165.019531 410.753906 161.25 411.507812 C 153.5 413.066406 155.65625 413.757812 164.5 412.554688 L 166.75 412.25 L 169.167969 407.582031 C 171.746094 402.597656 171.945312 401.484375 169.789062 404.046875 M 172.238281 407.605469 C 169.835938 412.382812 169.1875 412.066406 179.25 411.050781 C 188.339844 410.136719 188.179688 409.636719 178.757812 409.519531 C 173.632812 409.457031 173.28125 409.277344 174.035156 407.117188 C 175.289062 403.519531 174.140625 403.832031 172.238281 407.605469 M 127.75 405.066406 C 125.550781 405.304688 121.394531 405.78125 118.511719 406.125 L 113.273438 406.75 L 111.925781 410.25 C 110.195312 414.734375 106.277344 427.945312 106.585938 428.253906 C 106.839844 428.507812 116.195312 426.796875 117.625 426.234375 C 119.03125 425.683594 118.644531 424.847656 117.125 425.148438 C 116.367188 425.300781 114.308594 425.585938 112.546875 425.785156 L 109.34375 426.148438 L 109.652344 423.539062 C 110.328125 417.824219 113.628906 409.003906 115.453125 408.027344 C 116.613281 407.40625 124.261719 406.128906 132 405.265625 C 136.253906 404.792969 136.96875 404.625 134.75 404.628906 C 133.097656 404.632812 129.949219 404.828125 127.75 405.066406 M 304.273438 409.375 C 303.035156 419.523438 296.695312 438.804688 293.558594 441.9375 C 289.523438 445.976562 288.730469 439.394531 291.296875 423.132812 C 291.695312 420.597656 291.871094 417.910156 291.683594 417.164062 L 291.34375 415.808594 L 290.890625 417.027344 C 288.339844 423.875 286.8125 438.058594 288.226562 441.761719 C 292.53125 453.03125 303.511719 433.292969 304.847656 411.875 C 305.160156 406.835938 304.78125 405.1875 304.273438 409.375 M 105.75 408.234375 L 103.75 408.894531 L 105.390625 408.945312 C 108.097656 409.035156 107.988281 409.921875 103.414062 424.890625 C 103.136719 425.792969 102.199219 427.199219 101.332031 428.015625 L 99.75 429.496094 L 101.125 429.496094 C 102.589844 429.5 104.5 427.96875 104.5 426.792969 C 104.5 425.714844 108.230469 413.109375 109.429688 410.125 L 110.484375 407.5 L 109.117188 407.539062 C 108.367188 407.558594 106.851562 407.875 105.75 408.234375 M 307.8125 409.125 C 307.699219 409.742188 307.144531 413.398438 306.582031 417.25 C 303.121094 440.917969 292.164062 455.292969 286.445312 443.671875 C 284.949219 440.636719 284.835938 433.925781 286.171875 427.570312 C 287.410156 421.699219 287.074219 422.015625 283.5 430.117188 C 278.761719 440.84375 276.023438 445.957031 273.734375 448.34375 C 272.601562 449.53125 271.824219 450.5 272.011719 450.5 C 273.234375 450.5 276.128906 447.609375 278.742188 443.785156 C 282.511719 438.257812 282.402344 438.28125 284.382812 442.5 C 288.675781 451.628906 295.242188 450.300781 302.480469 438.839844 C 304.90625 435 305.222656 434.867188 306.214844 437.238281 C 307.894531 441.265625 313.183594 442.082031 319.386719 439.273438 L 322.527344 437.851562 L 323.714844 438.96875 C 327.417969 442.445312 333.164062 441.503906 340.625 436.191406 C 343.5625 434.101562 344.207031 434.082031 345.023438 436.0625 C 345.429688 437.035156 346.296875 437.882812 347.335938 438.316406 C 349.542969 439.238281 349.484375 439.578125 346.035156 446.179688 C 342.875 452.226562 342.074219 454.851562 342.9375 456.335938 C 343.402344 457.132812 343.472656 457.054688 343.496094 455.75 C 343.535156 453.523438 345.113281 450.429688 348.355469 446.226562 C 353.058594 440.128906 353.5 439.421875 353.5 437.960938 C 353.5 436.167969 352.179688 434.828125 350.800781 435.222656 C 346.28125 436.515625 345.84375 435.773438 348.9375 432.070312 C 352.710938 427.546875 356.015625 421.847656 355.289062 421.121094 C 354.511719 420.34375 346 425.96875 346 427.261719 C 346 429.75 332.34375 440 329.03125 440 C 326.355469 440 324.054688 436.71875 324.628906 433.710938 C 324.941406 432.082031 324.824219 432.132812 321.6875 434.929688 C 315.789062 440.183594 310.519531 441.417969 308.730469 437.964844 C 305.863281 432.414062 312.5625 420.402344 317.796875 421.714844 C 321.644531 422.683594 318.3125 429.597656 312.726562 432.238281 C 309.914062 433.570312 309.65625 434.03125 310.488281 436.21875 C 311.804688 439.675781 322.492188 433.183594 328 425.578125 C 331.996094 420.0625 337.953125 420.347656 335.714844 425.945312 C 334.734375 428.390625 330.597656 432.289062 328.488281 432.753906 C 325.402344 433.429688 326.90625 437.945312 330.007812 437.324219 C 333.132812 436.699219 344 428.066406 344 426.210938 C 344 424.738281 351.195312 419.40625 354.359375 418.535156 C 359.390625 417.144531 359.226562 421.304688 353.941406 429.117188 C 351.648438 432.507812 351.625 432.667969 353.257812 433.410156 C 353.949219 433.726562 354.78125 434.605469 355.109375 435.367188 C 355.433594 436.128906 355.753906 436.828125 355.816406 436.921875 C 356.300781 437.660156 367.78125 426.246094 369.015625 423.804688 C 370.789062 420.285156 370.667969 420.304688 366.84375 424.125 C 363.820312 427.144531 359.328125 429.996094 358.652344 429.320312 C 358.46875 429.136719 358.609375 427.222656 358.960938 425.0625 C 360.554688 415.242188 353.214844 414.996094 342.730469 424.519531 C 338.199219 428.632812 338 428.683594 338 425.710938 C 338 419.609375 333.035156 419.011719 325.820312 424.238281 C 322.839844 426.398438 322.617188 426.40625 321.769531 424.375 C 319.9375 420.003906 315.539062 419.203125 310.902344 422.394531 C 307.992188 424.398438 307.964844 424.324219 308.335938 414.9375 C 308.582031 408.660156 308.355469 406.164062 307.8125 409.125 M 160.84375 415.28125 C 154.863281 416.285156 154.679688 416.582031 159.625 417.242188 C 162.441406 417.621094 162.546875 418.054688 160.75 421.917969 C 158.351562 427.070312 156.308594 427.859375 153.355469 424.777344 C 151.390625 422.726562 150.945312 422.5 148.898438 422.5 C 146.742188 422.5 146.609375 422.417969 146.304688 420.898438 C 145.859375 418.675781 145.253906 419.628906 142 427.699219 C 138.976562 435.203125 139.003906 435.695312 142.199219 431.023438 C 148.039062 422.480469 151.863281 421.992188 151.972656 429.777344 C 152.074219 437.226562 160.34375 431.015625 163.8125 420.886719 C 166.253906 413.75 166.558594 414.324219 160.84375 415.28125 M 142.386719 419.035156 C 141.910156 419.308594 140.8125 420.566406 139.945312 421.828125 C 139.078125 423.089844 136.75 425.726562 134.773438 427.6875 C 132.792969 429.644531 130.804688 431.800781 130.351562 432.46875 C 129.167969 434.210938 128.699219 433.347656 129.398438 430.726562 C 130.152344 427.910156 130.160156 425.902344 129.425781 424.289062 C 129.019531 423.398438 129.007812 422.84375 129.382812 422.390625 C 129.789062 421.902344 129.625 421.734375 128.6875 421.675781 C 127.691406 421.617188 127.574219 421.734375 128.042969 422.300781 C 128.363281 422.683594 128.453125 423 128.25 423 C 128.042969 423 128.136719 423.3125 128.453125 423.695312 C 128.898438 424.230469 128.730469 425.285156 127.71875 428.296875 C 123.824219 439.890625 126.332031 440.886719 135.285156 431.300781 C 138.964844 427.359375 140.445312 425.363281 141.320312 423.164062 C 141.957031 421.5625 142.710938 419.855469 142.992188 419.375 C 143.585938 418.371094 143.554688 418.351562 142.386719 419.035156 M 377.578125 423.019531 C 373.21875 427.152344 373.097656 427.179688 372.902344 424.125 L 372.75 421.75 L 371.296875 424.664062 C 369.835938 427.597656 368.9375 432.5 369.863281 432.5 C 371.476562 432.5 382 421.554688 382 419.882812 C 382 419.046875 381.09375 419.6875 377.578125 423.019531 M 384.242188 423.875 C 384.058594 425.457031 383.585938 428.976562 383.191406 431.695312 C 382.433594 436.949219 382.609375 437.996094 383.917969 436.042969 C 384.363281 435.382812 386.253906 432.933594 388.113281 430.605469 C 389.976562 428.277344 391.5 426.285156 391.5 426.175781 C 391.5 425.78125 388.664062 427.449219 388.027344 428.21875 C 386.679688 429.839844 386 429.140625 385.992188 426.125 C 385.980469 420.632812 384.792969 419.105469 384.242188 423.875 M 125.882812 424.050781 C 124.945312 424.75 124.203125 426.09375 123.507812 428.339844 C 120.65625 437.566406 124.027344 443.332031 130.664062 440.578125 C 133.9375 439.222656 133.824219 439.210938 134.75 441 C 135.722656 442.882812 136.390625 442.933594 136.121094 441.105469 C 135.941406 439.878906 136.910156 435.148438 137.855469 432.640625 C 138.039062 432.152344 136.445312 433.488281 134.316406 435.613281 C 125.109375 444.792969 119.949219 438.285156 126.199219 425.375 C 126.832031 424.070312 127.324219 423.007812 127.296875 423.015625 C 127.273438 423.023438 126.636719 423.492188 125.882812 424.050781 M 180.566406 425.269531 C 178.894531 426.679688 176.730469 429.894531 177.164062 430.332031 C 177.894531 431.058594 183 426.144531 183 424.710938 C 183 423.667969 182.269531 423.835938 180.566406 425.269531 M 315.074219 424.800781 C 313.863281 425.652344 311 429.355469 311 430.074219 C 311 431.011719 312.164062 430.386719 314.523438 428.183594 C 317.628906 425.273438 318.046875 422.722656 315.074219 424.800781 M 331.960938 424.742188 C 329.953125 425.832031 327.101562 430.5 328.441406 430.5 C 329.277344 430.5 334 425.699219 334 424.851562 C 334 423.832031 333.664062 423.816406 331.960938 424.742188 M 378.25 428.339844 C 371.816406 435.445312 367.476562 436.890625 367.300781 431.988281 C 367.234375 430.050781 367.335938 429.992188 361.304688 435.429688 L 356.113281 440.105469 L 354.066406 445.425781 C 352.636719 449.144531 351.179688 451.863281 349.238281 454.4375 C 347.707031 456.464844 346.824219 457.984375 347.269531 457.8125 C 347.714844 457.640625 348.15625 457.5 348.25 457.5 C 348.964844 457.5 353.851562 450.300781 355.882812 446.25 C 359.660156 438.710938 366.027344 433.214844 367.75 436 C 368.503906 437.21875 372.554688 436.402344 377.125 434.105469 C 378.605469 433.363281 377.378906 441.1875 375.285156 445.835938 C 372.339844 452.386719 371.898438 457.5 374.28125 457.5 C 374.421875 457.5 374.300781 457.066406 374.015625 456.53125 C 372.835938 454.324219 373.746094 451.378906 377.503906 445.25 C 379.382812 442.179688 382.832031 425.667969 381.808594 424.640625 C 381.75 424.582031 380.148438 426.246094 378.25 428.339844 M 224.980469 428.351562 C 223.042969 431.046875 215.460938 445.5 215.980469 445.5 C 216.65625 445.5 218.425781 443.1875 221.21875 438.664062 C 224.992188 432.554688 225.144531 432.445312 227.128906 434.476562 C 229.847656 437.257812 238.105469 434.476562 240.519531 429.960938 C 240.867188 429.316406 239.9375 429.785156 237.902344 431.28125 C 230.097656 437.03125 227.5 436.378906 227.5 428.675781 C 227.5 425.394531 227.136719 425.347656 224.980469 428.351562 M 146.457031 429.171875 C 144.003906 432.019531 141.925781 435.167969 140.074219 438.84375 C 139.214844 440.550781 138.117188 442.191406 137.632812 442.496094 C 136.886719 442.960938 136.945312 443 138 442.734375 C 138.6875 442.5625 140 441.597656 140.914062 440.585938 C 146.691406 434.207031 146.480469 434.308594 149.5 436.308594 C 150.589844 437.03125 152.507812 437.734375 153.757812 437.878906 C 156.292969 438.164062 156.746094 438.707031 156.957031 441.730469 C 157.546875 450.179688 161.46875 451.027344 168.375 444.195312 C 170.710938 441.886719 172.679688 440 172.75 440 C 172.820312 440 173.742188 440.359375 174.800781 440.800781 C 177.351562 441.871094 180.113281 441.507812 184.265625 439.566406 C 187.546875 438.03125 189.5 437.597656 189.5 438.40625 C 189.5 438.632812 190.375 439.308594 191.441406 439.90625 C 194.949219 441.878906 200.757812 441.148438 207.109375 437.945312 C 210.417969 436.273438 210.605469 436.402344 211.234375 440.730469 C 211.945312 445.636719 213 445.789062 213.011719 440.988281 C 213.015625 438.65625 213.328125 435.285156 213.707031 433.5 C 214.085938 431.710938 214.359375 430.210938 214.320312 430.164062 C 214.277344 430.117188 212.332031 431.554688 209.996094 433.359375 C 199.375 441.566406 190.5 442.167969 190.5 434.683594 L 190.5 432.421875 L 187.875 434.726562 C 180.992188 440.773438 174.996094 441.539062 174.1875 436.472656 C 173.769531 433.847656 173.707031 433.878906 170.25 438.832031 C 159.890625 453.65625 156.421875 451.355469 160.316406 432.25 L 160.625 430.75 L 158.4375 432.816406 C 153.265625 437.703125 150.621094 436.800781 149.777344 429.875 C 149.363281 426.457031 148.886719 426.359375 146.457031 429.171875 M 119 428.457031 C 118.585938 428.695312 115.5625 429.359375 112.277344 429.941406 C 105.058594 431.214844 105.824219 430.457031 104.246094 437.929688 C 102.59375 445.746094 102.8125 445.929688 105.179688 438.730469 C 107.3125 432.261719 107.125 432.4375 113 431.25 C 117.394531 430.359375 120 429.332031 120 428.488281 C 120 427.90625 119.964844 427.90625 119 428.457031 M 389.386719 432.878906 C 382.46875 441.207031 380.058594 445.878906 380.007812 451.054688 C 380.003906 451.496094 379.371094 453.101562 378.605469 454.621094 C 377.671875 456.472656 377.449219 457.296875 377.925781 457.113281 C 378.808594 456.777344 381.652344 450.613281 382.457031 447.308594 C 383.28125 443.894531 384.289062 442.101562 389.203125 435.292969 C 393.132812 429.84375 393.933594 428.5 393.261719 428.5 C 393.128906 428.5 391.386719 430.46875 389.386719 432.878906 M 101.148438 431.882812 C 100.183594 432.039062 100.113281 432.207031 100.601562 433.269531 C 101.019531 434.1875 100.941406 435.753906 100.28125 439.777344 C 99.070312 447.148438 99.582031 446.777344 101.441406 438.925781 C 103.054688 432.125 103.03125 431.570312 101.148438 431.882812 M 348.894531 449.109375 C 347.347656 451.144531 345.847656 454.011719 346.164062 454.328125 C 346.464844 454.632812 348.628906 451.75 349.726562 449.578125 C 350.863281 447.335938 350.429688 447.089844 348.894531 449.109375 M 376.394531 451.933594 C 375.945312 453.070312 375.761719 454 375.980469 454 C 376.523438 454 377.648438 451.195312 377.402344 450.457031 C 377.292969 450.132812 376.839844 450.796875 376.394531 451.933594 "/>
<path style=" stroke:none;fill-rule:nonzero;fill:rgb(38.431373%,65.098039%,26.666667%);fill-opacity:1;" d="M 173.621094 80.625 L 173.5 103.496094 L 59.75 103.753906 L 116.640625 103.878906 C 161.78125 103.972656 173.582031 103.871094 173.773438 103.375 C 173.902344 103.03125 173.949219 92.625 173.875 80.25 L 173.738281 57.75 Z M 221.664062 102.875 C 241.417969 102.949219 273.59375 102.949219 293.164062 102.875 C 312.734375 102.800781 296.574219 102.742188 257.25 102.742188 C 217.925781 102.742188 201.910156 102.800781 221.664062 102.875 M 368.914062 103.875 C 384.679688 103.949219 410.328125 103.949219 425.914062 103.875 C 441.5 103.800781 428.601562 103.742188 397.25 103.742188 C 365.898438 103.742188 353.148438 103.800781 368.914062 103.875 M 54.746094 243.25 C 54.746094 317.226562 54.804688 347.414062 54.875 310.335938 C 54.945312 273.253906 54.945312 212.730469 54.875 175.835938 C 54.804688 138.9375 54.746094 169.273438 54.746094 243.25 M 246.160156 210.375 C 252.433594 210.453125 262.558594 210.453125 268.660156 210.375 C 274.757812 210.296875 269.625 210.230469 257.25 210.230469 C 244.875 210.230469 239.882812 210.296875 246.160156 210.375 M 250.625 295.375 C 254.132812 295.460938 259.867188 295.460938 263.375 295.375 C 266.882812 295.285156 264.011719 295.21875 257 295.21875 C 249.988281 295.21875 247.121094 295.285156 250.625 295.375 M 158.875 382.875 C 213.117188 382.945312 301.882812 382.945312 356.125 382.875 C 410.371094 382.804688 365.988281 382.746094 257.5 382.746094 C 149.011719 382.746094 104.632812 382.804688 158.875 382.875 M 227.25 394.714844 C 226.425781 395.070312 224.890625 396.183594 223.839844 397.183594 C 222.789062 398.183594 221.71875 399 221.464844 399 C 220.675781 399 217.007812 402.566406 214.664062 405.613281 C 213.433594 407.207031 212.277344 408.429688 212.089844 408.324219 C 211.902344 408.214844 211.1875 408.824219 210.5 409.671875 C 209.8125 410.519531 209.558594 411.019531 209.941406 410.785156 C 210.417969 410.492188 210.5625 410.574219 210.402344 411.054688 C 209.890625 412.621094 205.894531 414.207031 202.453125 414.207031 C 198.980469 414.207031 192.527344 411.707031 192.480469 410.34375 C 192.453125 409.578125 187.5 405.742188 187.5 406.488281 C 187.5 406.796875 186.65625 406.378906 185.625 405.566406 C 184.59375 404.75 182.34375 403.335938 180.621094 402.417969 C 178.902344 401.5 176.988281 400.472656 176.371094 400.132812 C 173.894531 398.769531 167.441406 399.9375 162.050781 402.722656 C 161.265625 403.128906 160.449219 403.300781 160.234375 403.105469 C 160.015625 402.910156 160 403.03125 160.199219 403.375 C 160.515625 403.921875 160.289062 404.0625 159.222656 403.976562 C 159.070312 403.964844 158.5625 404.371094 158.097656 404.875 C 157.632812 405.382812 157.472656 405.449219 157.75 405.023438 C 158.1875 404.347656 158.136719 404.339844 157.375 404.9375 C 156.894531 405.3125 156.5 405.921875 156.5 406.285156 C 156.5 406.648438 155.953125 407.238281 155.28125 407.597656 C 154.609375 407.957031 153.003906 408.894531 151.714844 409.683594 C 149.847656 410.828125 148.734375 411.132812 146.234375 411.183594 C 144.507812 411.21875 143.355469 411.414062 143.671875 411.617188 C 144.101562 411.890625 144.09375 411.988281 143.648438 411.992188 C 143.316406 411.996094 142.425781 411.382812 141.671875 410.625 C 140.792969 409.746094 140.417969 409.566406 140.632812 410.125 C 141.027344 411.160156 140.585938 411.222656 139.375 410.304688 C 138.304688 409.492188 138.21875 407.523438 139.25 407.4375 C 139.660156 407.402344 140.226562 407.320312 140.5 407.25 C 140.773438 407.179688 141.347656 407.097656 141.773438 407.0625 C 144.035156 406.878906 141.664062 399.617188 139.296875 399.464844 C 138.996094 399.445312 137.925781 399.328125 136.917969 399.207031 C 135.910156 399.082031 132.757812 398.902344 129.917969 398.808594 C 127.074219 398.714844 122.101562 398.34375 118.859375 397.984375 C 112.132812 397.234375 111.863281 397.308594 106 401.496094 C 105.039062 402.183594 103.199219 403.234375 101.914062 403.832031 C 98.46875 405.433594 97.277344 408.550781 99.019531 411.410156 C 100.132812 413.246094 99.933594 414.882812 97.5625 423.25 C 96.042969 428.609375 95.625 433.449219 96.488281 435.71875 C 96.886719 436.773438 96.863281 437.316406 96.386719 437.90625 C 95.960938 438.429688 95.945312 438.574219 96.339844 438.335938 C 96.664062 438.144531 97.0625 438.195312 97.222656 438.457031 C 97.386719 438.71875 97.285156 439.074219 97 439.25 C 96.714844 439.425781 96.625 439.796875 96.792969 440.070312 C 96.964844 440.347656 97.148438 442.136719 97.199219 444.046875 C 97.378906 450.648438 102.792969 452.046875 105.265625 446.136719 C 105.640625 445.234375 106.183594 444.5 106.472656 444.5 C 106.761719 444.5 107 444.164062 107 443.75 C 107 443.335938 107.167969 443.035156 107.375 443.078125 C 107.738281 443.15625 108.675781 442.855469 110.75 441.996094 C 114.074219 440.613281 116.386719 440.933594 121.433594 443.46875 C 128.253906 446.890625 137.265625 448.675781 141.75 447.492188 C 143.042969 447.148438 147.839844 447.296875 147.328125 447.660156 C 146.996094 447.894531 147.429688 447.988281 148.347656 447.875 C 149.226562 447.769531 149.832031 447.867188 149.695312 448.089844 C 149.476562 448.441406 150.207031 448.605469 151.320312 448.457031 C 151.496094 448.433594 151.8125 448.699219 152.03125 449.046875 C 152.246094 449.398438 153.394531 449.964844 154.585938 450.308594 C 162.742188 452.671875 162.539062 452.640625 166.234375 451.980469 C 168.167969 451.632812 170.253906 451.359375 170.871094 451.371094 C 171.496094 451.382812 171.855469 451.171875 171.683594 450.894531 C 171.492188 450.578125 171.792969 450.527344 172.5 450.75 C 173.261719 450.992188 173.515625 450.929688 173.285156 450.558594 C 173.074219 450.214844 173.238281 450.121094 173.722656 450.308594 C 174.152344 450.472656 174.5 450.34375 174.5 450.023438 C 174.5 449.703125 174.734375 449.585938 175.019531 449.761719 C 175.664062 450.160156 180.53125 448.953125 180.230469 448.46875 C 180.109375 448.273438 180.457031 447.996094 181.007812 447.855469 C 181.550781 447.710938 182 447.796875 182 448.046875 C 182 448.296875 182.460938 448.5 183.03125 448.5 C 183.59375 448.5 183.9375 448.304688 183.789062 448.0625 C 183.496094 447.589844 186.265625 447.015625 188.875 447.003906 C 189.769531 447.003906 190.5 447.226562 190.5 447.5 C 190.5 447.773438 191.230469 447.996094 192.125 447.992188 C 193.359375 447.984375 193.570312 447.867188 193 447.5 C 191.734375 446.683594 200.410156 446.914062 206.605469 447.863281 C 216.734375 449.414062 216.480469 449.476562 229.75 442.179688 C 238.699219 437.257812 241.910156 434.59375 243.015625 431.15625 C 243.355469 430.109375 243.828125 429 244.066406 428.695312 C 244.78125 427.789062 243.980469 425.15625 242.613281 423.910156 C 241.914062 423.273438 241.5 423.027344 241.695312 423.367188 C 241.933594 423.785156 241.796875 423.890625 241.277344 423.691406 C 240.847656 423.527344 240.5 423.191406 240.5 422.945312 C 240.5 422.699219 240.175781 422.5 239.777344 422.5 C 236.613281 422.5 234.195312 415.195312 233.742188 404.25 C 233.359375 395.011719 231.808594 392.734375 227.25 394.714844 M 230.804688 399.140625 C 230.644531 401.925781 229.191406 405.601562 224.703125 414.578125 C 221.25 421.480469 219.914062 426.515625 222.117188 424.3125 C 226.570312 419.855469 231.5 421.074219 231.5 426.628906 C 231.5 429.933594 232.359375 430.269531 235.691406 428.265625 C 239.304688 426.085938 239.578125 426.070312 237.722656 428.125 C 236.542969 429.433594 236.652344 429.382812 238.296875 427.851562 C 241.042969 425.296875 242.679688 426.402344 240.199219 429.136719 C 239.140625 430.300781 239.074219 430.464844 239.949219 429.742188 L 241.144531 428.75 L 240.566406 429.855469 C 238.15625 434.445312 229.882812 437.292969 227.128906 434.476562 C 225.144531 432.445312 224.992188 432.554688 221.21875 438.664062 C 217.03125 445.445312 215.089844 446.84375 213.382812 444.296875 C 213.144531 443.941406 213.011719 444.007812 213.007812 444.488281 C 212.992188 446.109375 211.582031 443.125 211.234375 440.730469 C 210.605469 436.402344 210.417969 436.273438 207.109375 437.945312 C 200.757812 441.148438 194.949219 441.878906 191.441406 439.90625 C 190.375 439.308594 189.5 438.632812 189.5 438.40625 C 189.5 437.597656 187.546875 438.03125 184.265625 439.566406 C 180.113281 441.507812 177.351562 441.871094 174.800781 440.800781 C 173.742188 440.359375 172.820312 440 172.75 440 C 172.679688 440 170.710938 441.886719 168.375 444.195312 C 161.46875 451.027344 157.546875 450.179688 156.957031 441.730469 C 156.746094 438.707031 156.292969 438.164062 153.757812 437.878906 C 152.507812 437.734375 150.589844 437.03125 149.5 436.308594 C 146.480469 434.308594 146.691406 434.207031 140.914062 440.585938 C 140 441.597656 138.6875 442.582031 138 442.777344 L 136.75 443.132812 L 137.773438 442.191406 C 138.335938 441.675781 138.507812 441.445312 138.15625 441.679688 C 137.800781 441.917969 137.160156 441.976562 136.730469 441.8125 C 136.28125 441.636719 136.078125 441.722656 136.253906 442.003906 C 136.421875 442.277344 136.328125 442.5 136.042969 442.5 C 135.757812 442.5 135.175781 441.824219 134.75 441 C 133.824219 439.210938 133.9375 439.222656 130.664062 440.578125 C 124.035156 443.328125 120.65625 437.566406 123.503906 428.363281 C 124.605469 424.792969 125.089844 424.222656 127.125 424.097656 C 128.105469 424.035156 128.5 424.25 128.5 424.839844 C 128.5 425.292969 128.640625 425.527344 128.8125 425.355469 C 128.984375 425.183594 128.96875 424.640625 128.78125 424.148438 C 128.589844 423.652344 128.503906 423.226562 128.59375 423.203125 C 128.679688 423.175781 128.519531 422.835938 128.238281 422.453125 C 127.359375 421.242188 127.636719 418.792969 128.679688 418.589844 C 129.9375 418.339844 130.722656 419.222656 130.234375 420.339844 C 130.015625 420.839844 129.796875 421.363281 129.75 421.5 C 129.703125 421.636719 129.496094 422.125 129.292969 422.585938 C 129.089844 423.046875 129.164062 423.875 129.460938 424.425781 C 130.164062 425.742188 130.144531 427.949219 129.398438 430.726562 C 128.699219 433.347656 129.167969 434.210938 130.351562 432.46875 C 130.804688 431.800781 132.792969 429.644531 134.773438 427.6875 C 136.75 425.726562 139.082031 423.085938 139.953125 421.820312 C 141.902344 418.980469 143.03125 418.296875 144.257812 419.195312 C 144.800781 419.589844 145.011719 420.125 144.789062 420.550781 C 144.589844 420.933594 144.777344 420.816406 145.207031 420.285156 C 145.960938 419.359375 146 419.382812 146.308594 420.910156 C 146.609375 422.417969 146.746094 422.5 148.898438 422.5 C 150.945312 422.5 151.390625 422.726562 153.355469 424.777344 C 156.308594 427.859375 158.351562 427.070312 160.75 421.917969 C 162.546875 418.054688 162.441406 417.621094 159.625 417.242188 C 156.1875 416.785156 155.480469 416.445312 157 415.980469 L 158.25 415.597656 L 156.875 415.550781 C 155.359375 415.496094 154.878906 414.003906 156.375 413.992188 C 157.015625 413.988281 157.078125 413.875 156.609375 413.578125 C 155.75 413.03125 157.425781 412.289062 161.273438 411.507812 C 165.164062 410.722656 166.070312 410.089844 167.875 406.90625 C 169.28125 404.417969 171.5 401.867188 171.5 402.734375 C 171.5 402.949219 171.828125 402.851562 172.226562 402.519531 C 173.21875 401.699219 174.113281 402.351562 173.714844 403.605469 C 173.5 404.285156 173.578125 404.511719 173.945312 404.28125 C 174.652344 403.847656 174.671875 405.484375 173.980469 407.296875 C 173.230469 409.273438 173.597656 409.40625 180.601562 409.632812 C 186.953125 409.839844 188.5 410.269531 188.5 411.8125 C 188.5 412.246094 187.898438 412.519531 186.875 412.550781 C 185.375 412.597656 185.347656 412.625 186.5 412.949219 C 188.210938 413.425781 187.46875 413.675781 179.613281 415.265625 C 176.113281 415.976562 172.855469 416.671875 172.371094 416.8125 C 170.519531 417.355469 169 422.429688 170.300781 423.730469 C 170.992188 424.421875 170.992188 424.5 170.285156 424.5 C 169.851562 424.5 169.5 424.851562 169.5 425.285156 C 169.5 426.394531 171.261719 425.753906 173.75 423.734375 C 180.046875 418.628906 185.855469 418.691406 187.527344 423.882812 C 187.859375 424.910156 188.226562 425.917969 188.34375 426.125 C 188.664062 426.683594 191.476562 425.09375 193.847656 423.015625 C 197.949219 419.414062 202.402344 419.425781 204.269531 423.042969 C 206.589844 427.527344 202.21875 433.21875 198.957031 429.957031 C 197.738281 428.734375 197.90625 428.613281 196.566406 431.679688 C 194.257812 436.976562 198.226562 436.113281 207.351562 429.335938 C 212.402344 425.585938 213.339844 424.28125 216.738281 416.25 C 221.226562 405.640625 225.976562 397.9375 228.742188 396.773438 C 230.789062 395.914062 230.976562 396.125 230.804688 399.140625 M 278.039062 396.394531 C 276.742188 396.605469 270.886719 402.367188 269.722656 404.570312 C 269.339844 405.300781 268.0625 407.324219 266.882812 409.074219 C 263.347656 414.308594 260.882812 420.566406 259.78125 427.101562 C 258.105469 437.03125 260.519531 447.382812 265.382812 451.128906 C 267.550781 452.800781 270.5625 453.675781 272.964844 453.332031 C 280.640625 452.242188 282.945312 452.039062 288.101562 452.023438 C 293.582031 452 297.042969 451.453125 300.710938 450.027344 C 301.515625 449.714844 302.484375 449.578125 302.863281 449.722656 C 303.242188 449.867188 303.414062 449.765625 303.246094 449.492188 C 302.929688 448.980469 303.242188 448.886719 305.75 448.761719 C 310.691406 448.511719 311.289062 448.414062 310 448.042969 C 307.457031 447.316406 313.871094 447.046875 322.488281 447.511719 C 330.90625 447.972656 335.335938 449.089844 335.625 450.824219 C 335.660156 451.058594 335.878906 451.476562 336.109375 451.75 C 336.335938 452.027344 337.472656 453.710938 338.636719 455.5 C 341.222656 459.476562 341.582031 459.867188 343.246094 460.496094 C 347.136719 461.976562 353.910156 459.914062 358.308594 455.910156 C 358.894531 455.382812 359.832031 454.914062 360.402344 454.871094 C 360.96875 454.828125 361.339844 454.648438 361.230469 454.46875 C 361.121094 454.292969 361.613281 453.878906 362.324219 453.554688 C 363.445312 453.046875 363.578125 453.074219 363.3125 453.765625 C 363.011719 454.546875 363.46875 454.527344 365.761719 453.671875 C 366.214844 453.5 368.328125 455.359375 371.214844 458.464844 C 378.210938 465.996094 391.96875 449.613281 395.996094 428.949219 C 396.621094 425.757812 396.285156 424.949219 393.570312 423.097656 C 392.265625 422.207031 390.425781 420.734375 389.476562 419.820312 C 385.8125 416.300781 385.734375 416.277344 375.023438 415.953125 C 366.5625 415.699219 364.578125 415.476562 360.25 414.308594 C 355.277344 412.96875 346.515625 412.558594 346.503906 413.664062 C 346.503906 413.894531 345.769531 413.933594 344.875 413.761719 C 343.597656 413.507812 343.410156 413.5625 344 414.007812 C 344.585938 414.453125 344.351562 414.507812 342.921875 414.273438 C 341.675781 414.070312 341 414.175781 340.796875 414.609375 C 340.597656 415.035156 340.414062 415.070312 340.238281 414.710938 C 339.960938 414.140625 329.308594 414.175781 327.5 414.75 C 325.160156 415.492188 315.90625 412.894531 316.132812 411.558594 C 316.199219 411.175781 315.734375 410.785156 315.089844 410.679688 C 313.246094 410.386719 311.675781 408.917969 310.714844 406.589844 C 308.703125 401.722656 302.949219 401.796875 301.714844 406.707031 C 301.539062 407.417969 301.179688 408 300.917969 408 C 300.65625 408 299.5 408.421875 298.347656 408.941406 C 290.542969 412.441406 281.695312 408.953125 282.296875 402.613281 C 282.738281 397.960938 281.304688 395.863281 278.039062 396.394531 M 280.328125 398.773438 C 280.5 399.222656 280.121094 400.117188 279.4375 400.886719 C 278.589844 401.839844 278.53125 402.007812 279.230469 401.484375 C 280.042969 400.875 279.980469 401.148438 278.867188 403.070312 C 272.882812 413.398438 268.226562 431.824219 269.421875 440.445312 C 270.316406 446.871094 271.351562 446.4375 275.210938 438 C 282.261719 422.59375 286.515625 415 288.097656 415 C 288.40625 415 288.34375 415.359375 287.945312 415.875 C 287.300781 416.707031 287.316406 416.707031 288.289062 415.882812 C 289.402344 414.9375 290.464844 415.457031 290.535156 416.976562 C 290.558594 417.523438 290.683594 417.460938 290.953125 416.769531 C 291.804688 414.597656 292.015625 418.566406 291.296875 423.132812 C 289.15625 436.699219 289.292969 443 291.726562 443 C 295.183594 443 301.289062 426.597656 304.457031 408.78125 C 305.230469 404.449219 307.488281 403.640625 307.507812 407.6875 C 307.511719 408.917969 307.625 409.089844 308.035156 408.5 C 308.398438 407.972656 308.480469 409.851562 308.308594 414.816406 C 307.976562 424.347656 307.992188 424.398438 310.902344 422.394531 C 315.539062 419.203125 319.9375 420.003906 321.769531 424.375 C 322.617188 426.40625 322.839844 426.398438 325.820312 424.238281 C 333.035156 419.011719 338 419.609375 338 425.710938 C 338 428.683594 338.199219 428.632812 342.730469 424.519531 C 353.214844 414.996094 360.554688 415.242188 358.960938 425.0625 C 358.609375 427.222656 358.46875 429.136719 358.652344 429.320312 C 359.332031 429.996094 363.824219 427.144531 366.859375 424.109375 C 370.023438 420.945312 372.695312 420.296875 371.789062 422.914062 C 371.566406 423.550781 371.675781 423.519531 372.25 422.777344 C 372.949219 421.875 373 421.96875 373 424.15625 C 373 427.1875 373.207031 427.136719 377.574219 423.097656 C 383.207031 417.886719 385.582031 418.527344 385.925781 425.359375 C 386.113281 429.105469 386.667969 429.855469 388.027344 428.21875 C 388.835938 427.242188 391.753906 425.6875 391.253906 426.496094 C 391.019531 426.875 391.257812 426.847656 391.933594 426.425781 C 393.804688 425.257812 394.265625 426.597656 392.671875 428.554688 C 391.667969 429.78125 391.589844 429.988281 392.394531 429.296875 C 394.472656 427.507812 393.503906 429.328125 389.203125 435.292969 C 384.289062 442.101562 383.28125 443.894531 382.457031 447.308594 C 381.585938 450.894531 378.777344 456.789062 377.75 457.179688 C 376.960938 457.484375 376.9375 457.417969 377.546875 456.636719 C 378.09375 455.929688 378.003906 455.945312 377.089844 456.726562 C 376.113281 457.558594 375.792969 457.609375 374.917969 457.066406 C 374.355469 456.714844 374.042969 456.667969 374.226562 456.960938 C 374.410156 457.257812 374.4375 457.5 374.292969 457.5 C 371.898438 457.5 372.332031 452.398438 375.285156 445.835938 C 377.378906 441.1875 378.605469 433.363281 377.125 434.105469 C 372.554688 436.402344 368.503906 437.21875 367.75 436 C 366.027344 433.214844 359.660156 438.710938 355.882812 446.25 C 353.851562 450.300781 348.964844 457.5 348.25 457.5 C 348.15625 457.5 347.667969 457.648438 347.164062 457.832031 C 346.433594 458.09375 346.5 457.875 347.5 456.734375 L 348.75 455.304688 L 347.191406 456.527344 C 346.332031 457.199219 345.726562 457.917969 345.84375 458.125 C 346.316406 458.953125 345.171875 458.433594 344.519531 457.527344 C 344.132812 456.992188 343.640625 456.664062 343.425781 456.796875 C 341.257812 458.136719 342.753906 452.363281 346.304688 445.675781 C 349.464844 439.722656 349.535156 439.238281 347.335938 438.316406 C 346.296875 437.882812 345.429688 437.035156 345.023438 436.0625 C 344.207031 434.082031 343.5625 434.101562 340.625 436.191406 C 333.164062 441.503906 327.417969 442.445312 323.714844 438.96875 L 322.527344 437.851562 L 319.386719 439.273438 C 313.183594 442.082031 307.894531 441.265625 306.214844 437.238281 C 305.222656 434.867188 304.90625 435 302.480469 438.839844 C 295.242188 450.300781 288.675781 451.628906 284.382812 442.5 C 282.402344 438.28125 282.511719 438.257812 278.742188 443.785156 C 267.097656 460.84375 259.261719 441.960938 267.800781 417.425781 C 270.527344 409.59375 276.191406 398.859375 277.113281 399.78125 C 277.238281 399.90625 277.75 399.554688 278.246094 399.003906 C 279.335938 397.800781 279.929688 397.734375 280.328125 398.773438 M 114.703125 402 C 114.660156 403 114.730469 403.042969 115.242188 402.347656 C 115.765625 401.628906 115.910156 401.625 116.582031 402.296875 C 117.238281 402.949219 118.195312 402.980469 123.730469 402.503906 C 127.246094 402.199219 131.726562 402.0625 133.6875 402.199219 C 136.375 402.382812 136.820312 402.335938 135.5 402 C 134.054688 401.628906 134.226562 401.597656 136.488281 401.808594 C 141.179688 402.246094 141.832031 403.957031 137.34375 404.058594 C 135.210938 404.109375 135.015625 404.179688 136.25 404.460938 C 137.367188 404.714844 136.597656 404.898438 133.25 405.179688 C 115.324219 406.679688 114.113281 407.308594 111.285156 416.589844 C 108.390625 426.078125 108.566406 426.507812 114.898438 425.480469 C 118.390625 424.914062 119.855469 425.585938 119.351562 427.519531 C 119.207031 428.058594 119.296875 428.375 119.546875 428.222656 C 119.796875 428.066406 120 428.175781 120 428.457031 C 120 429.34375 117.410156 430.367188 112.871094 431.269531 C 107.21875 432.390625 107.335938 432.277344 105.039062 439 C 103.960938 442.160156 103.03125 444.300781 102.980469 443.75 C 102.925781 443.199219 102.613281 443.875 102.289062 445.25 C 101.828125 447.191406 101.476562 447.75 100.722656 447.75 C 99.433594 447.75 99.367188 446.175781 100.367188 439.613281 C 100.957031 435.75 101.015625 434.175781 100.601562 433.269531 C 100.117188 432.207031 100.183594 432.039062 101.148438 431.847656 C 102.0625 431.671875 102.015625 431.625 100.875 431.570312 C 99.582031 431.503906 98.769531 430 100.03125 430 C 100.320312 430 100.4375 429.804688 100.292969 429.570312 C 100.148438 429.332031 100.671875 428.566406 101.460938 427.863281 C 102.25 427.160156 103.125 425.835938 103.40625 424.917969 C 108.585938 407.980469 108.648438 408.535156 101.566406 408.960938 C 98.707031 409.136719 98.957031 407.960938 101.933594 407.230469 C 103.097656 406.945312 103.867188 406.535156 103.648438 406.316406 C 103.429688 406.097656 103.925781 406.066406 104.75 406.25 C 105.707031 406.460938 106.015625 406.417969 105.609375 406.125 C 105.148438 405.800781 105.539062 405.496094 106.972656 405.066406 C 108.074219 404.738281 110.019531 403.5625 111.296875 402.460938 C 113.785156 400.304688 114.777344 400.171875 114.703125 402 M 128.125 402.84375 C 128.605469 402.972656 129.394531 402.972656 129.875 402.84375 C 130.355469 402.71875 129.960938 402.617188 129 402.617188 C 128.039062 402.617188 127.644531 402.71875 128.125 402.84375 M 275.976562 406.046875 C 275.402344 407.175781 275.015625 408.183594 275.121094 408.289062 C 275.226562 408.390625 275.800781 407.46875 276.398438 406.238281 C 277.761719 403.433594 277.394531 403.269531 275.976562 406.046875 M 129.125 404.84375 C 129.605469 404.96875 130.394531 404.96875 130.875 404.84375 C 131.355469 404.71875 130.960938 404.617188 130 404.617188 C 129.039062 404.617188 128.644531 404.71875 129.125 404.84375 M 305.125 408.75 C 305.132812 409.847656 305.234375 410.242188 305.355469 409.621094 C 305.472656 408.996094 305.46875 408.097656 305.34375 407.617188 C 305.21875 407.140625 305.121094 407.652344 305.125 408.75 M 307.125 411.75 C 307.132812 412.851562 307.234375 413.242188 307.355469 412.621094 C 307.472656 411.996094 307.46875 411.097656 307.34375 410.617188 C 307.21875 410.140625 307.121094 410.648438 307.125 411.75 M 195.972656 423.375 L 194.25 425.25 L 196.125 423.527344 C 197.871094 421.921875 198.230469 421.5 197.847656 421.5 C 197.765625 421.5 196.921875 422.34375 195.972656 423.375 M 228.375 423.015625 C 228.992188 423.265625 229.519531 423.867188 229.539062 424.359375 C 229.5625 424.910156 229.675781 425.007812 229.835938 424.609375 C 230.175781 423.761719 229.09375 422.492188 228.0625 422.53125 C 227.511719 422.554688 227.613281 422.710938 228.375 423.015625 M 227.441406 427.109375 C 227.671875 428.496094 227.742188 428.566406 227.898438 427.566406 C 228 426.917969 227.878906 426.179688 227.625 425.925781 C 227.351562 425.648438 227.277344 426.117188 227.441406 427.109375 M 229.65625 428.25 C 229.65625 429.898438 229.75 430.515625 229.863281 429.617188 C 229.972656 428.71875 229.972656 427.367188 229.855469 426.617188 C 229.742188 425.863281 229.652344 426.601562 229.65625 428.25 M 191.5 428.25 C 190.285156 429.488281 189.402344 430.5 189.542969 430.5 C 189.679688 430.5 190.785156 429.488281 192 428.25 C 193.214844 427.011719 194.09375 426 193.957031 426 C 193.820312 426 192.714844 427.011719 191.5 428.25 M 322.972656 430.875 L 321.25 432.75 L 323.125 431.027344 C 324.871094 429.421875 325.230469 429 324.847656 429 C 324.765625 429 323.921875 429.84375 322.972656 430.875 M 365.460938 431.375 L 364.25 432.75 L 365.75 431.5 C 366.574219 430.8125 367.34375 430.195312 367.457031 430.125 C 367.574219 430.054688 367.441406 430 367.171875 430 C 366.898438 430 366.128906 430.617188 365.460938 431.375 M 133.226562 433.625 L 131.25 435.75 L 133.375 433.773438 C 135.351562 431.9375 135.730469 431.5 135.351562 431.5 C 135.269531 431.5 134.3125 432.457031 133.226562 433.625 M 359.21875 434.125 L 357.75 435.75 L 359.375 434.28125 C 360.269531 433.472656 361 432.742188 361 432.65625 C 361 432.269531 360.585938 432.609375 359.21875 434.125 M 324.617188 434.5 C 324.617188 435.460938 324.71875 435.855469 324.84375 435.375 C 324.96875 434.894531 324.96875 434.105469 324.84375 433.625 C 324.71875 433.144531 324.617188 433.539062 324.617188 434.5 M 367.9375 434.125 C 368.3125 434.605469 369.101562 434.972656 369.6875 434.941406 C 370.695312 434.886719 370.699219 434.871094 369.75 434.636719 C 369.199219 434.503906 368.414062 434.136719 368 433.820312 C 367.347656 433.324219 367.339844 433.363281 367.9375 434.125 M 123.617188 436 C 123.617188 436.960938 123.71875 437.355469 123.84375 436.875 C 123.96875 436.394531 123.96875 435.605469 123.84375 435.125 C 123.71875 434.644531 123.617188 435.039062 123.617188 436 M 287.140625 436.75 C 287.144531 438.125 287.242188 438.628906 287.359375 437.867188 C 287.472656 437.109375 287.46875 435.984375 287.351562 435.367188 C 287.234375 434.753906 287.140625 435.375 287.140625 436.75 M 359.71875 436.625 L 358.25 438.25 L 359.875 436.78125 C 360.769531 435.972656 361.5 435.242188 361.5 435.15625 C 361.5 434.769531 361.089844 435.109375 359.71875 436.625 M 177.125 439.84375 C 177.605469 439.96875 178.394531 439.96875 178.875 439.84375 C 179.355469 439.71875 178.960938 439.617188 178 439.617188 C 177.039062 439.617188 176.644531 439.71875 177.125 439.84375 M 311.378906 439.855469 C 312.003906 439.972656 312.902344 439.96875 313.382812 439.84375 C 313.859375 439.71875 313.351562 439.621094 312.25 439.625 C 311.148438 439.632812 310.757812 439.734375 311.378906 439.855469 M 328.125 439.84375 C 328.605469 439.96875 329.394531 439.96875 329.875 439.84375 C 330.355469 439.71875 329.960938 439.617188 329 439.617188 C 328.039062 439.617188 327.644531 439.71875 328.125 439.84375 M 158.644531 443.25 C 158.648438 444.625 158.746094 445.128906 158.859375 444.367188 C 158.972656 443.609375 158.972656 442.484375 158.851562 441.867188 C 158.734375 441.253906 158.640625 441.875 158.644531 443.25 M 273.21875 448.625 L 271.75 450.25 L 273.375 448.78125 C 274.269531 447.972656 275 447.242188 275 447.15625 C 275 446.769531 274.585938 447.109375 273.21875 448.625 "/>
</g>
</svg>
